<?xml version="1.0" encoding="UTF-8" standalone="no"?>
<!-- Created with Inkscape (http://www.inkscape.org/) -->

<svg
   width="105mm"
   height="105mm"
   viewBox="0 0 105 105"
   version="1.1"
   id="svg1"
   inkscape:version="1.3.2 (091e20e, 2023-11-25, custom)"
   sodipodi:docname="logo kwadrat Geo-AID black.svg"
   xmlns:inkscape="http://www.inkscape.org/namespaces/inkscape"
   xmlns:sodipodi="http://sodipodi.sourceforge.net/DTD/sodipodi-0.dtd"
   xmlns="http://www.w3.org/2000/svg"
   xmlns:svg="http://www.w3.org/2000/svg">
  <sodipodi:namedview
     id="namedview1"
     pagecolor="#ffffff"
     bordercolor="#111111"
     borderopacity="1"
     inkscape:showpageshadow="0"
     inkscape:pageopacity="0"
     inkscape:pagecheckerboard="1"
     inkscape:deskcolor="#d1d1d1"
     inkscape:document-units="mm"
     showguides="true"
     inkscape:zoom="0.51717104"
     inkscape:cx="471.7975"
     inkscape:cy="224.29717"
     inkscape:window-width="1435"
     inkscape:window-height="1040"
     inkscape:window-x="848"
     inkscape:window-y="215"
     inkscape:window-maximized="0"
     inkscape:current-layer="layer1">
    <sodipodi:guide
       position="52.816077,159.9866"
       orientation="1,0"
       id="guide1"
       inkscape:locked="false" />
  </sodipodi:namedview>
  <defs
     id="defs1" />
  <g
     inkscape:label="Warstwa 1"
     inkscape:groupmode="layer"
     id="layer1">
    <g
       id="g632"
       transform="matrix(3.7601038,0,0,3.7601038,-155.52514,-432.11073)">
      <g
         id="g43"
         style="stroke:none;stroke-width:0.1;stroke-dasharray:none;stroke-opacity:1">
        <path
           style="fill:none;stroke:none;stroke-width:0.1;stroke-linecap:round;stroke-linejoin:round;stroke-dasharray:none;stroke-opacity:1"
           d="m 52.413331,129.56555 -0.01767,2.36243 6.664156,0.0219 z"
           id="path10" />
        <path
           style="fill:none;stroke:none;stroke-width:0.1;stroke-linecap:round;stroke-linejoin:round;stroke-dasharray:none;stroke-opacity:1"
           d="m 52.420577,129.56599 12.177736,0.11426 -5.640739,2.26892 7.160243,0.053 -1.555559,-2.32266 4.613645,-0.0278 -0.547054,4.00246 -2.515997,-1.66643 3.044971,-2.32884"
           id="path11"
           sodipodi:nodetypes="ccccccccc" />
        <path
           style="fill:none;stroke:none;stroke-width:0.1;stroke-linecap:round;stroke-linejoin:round;stroke-dasharray:none;stroke-opacity:1"
           d="m 66.144208,131.98802 -1.555739,3.86831 4.026746,-2.1749 -1.964454,3.77372 -1.956232,-1.64257 -0.989901,4.41862 2.937399,-2.76487"
           id="path12"
           sodipodi:nodetypes="ccccccc" />
        <path
           style="fill:none;stroke:none;stroke-width:0.1;stroke-linecap:round;stroke-linejoin:round;stroke-dasharray:none;stroke-opacity:1"
           d="m 63.663245,140.24858 -4.964944,2.62988 1.691676,-3.2421 z"
           id="path13"
           sodipodi:nodetypes="cccc" />
        <path
           style="fill:none;stroke:none;stroke-width:0.1;stroke-linecap:round;stroke-linejoin:round;stroke-dasharray:none;stroke-opacity:1"
           d="m 64.698454,135.77642 -4.246357,3.76674"
           id="path14"
           sodipodi:nodetypes="cc" />
        <path
           style="fill:none;stroke:none;stroke-width:0.1;stroke-linecap:round;stroke-linejoin:round;stroke-dasharray:none;stroke-opacity:1"
           d="m 58.684416,142.88397 -6.03368,0.0199 -2.639735,-3.79024 z"
           id="path15" />
        <path
           style="fill:none;stroke:none;stroke-width:0.1;stroke-linecap:round;stroke-linejoin:round;stroke-dasharray:none;stroke-opacity:1"
           d="m 60.393174,139.59088 v 0 l -6.728967,1.08974"
           id="path16" />
        <path
           style="fill:none;stroke:none;stroke-width:0.1;stroke-linecap:round;stroke-linejoin:round;stroke-dasharray:none;stroke-opacity:1"
           d="m 52.631641,142.91698 -5.496065,-2.43919 0.436025,-3.19764 2.407944,1.82055 -2.832185,1.12653"
           id="path17"
           sodipodi:nodetypes="ccccc" />
        <path
           style="fill:none;stroke:none;stroke-width:0.1;stroke-linecap:round;stroke-linejoin:round;stroke-dasharray:none;stroke-opacity:1"
           d="m 47.097942,140.43163 -3.226684,-3.21909 3.685469,0.07 -2.518433,-3.97611 -1.164756,3.90777 -1.970845,-5.18641 2.510654,-4.43597 0.62458,5.71518 -3.1229,-1.26473 -0.353537,-4.90384 2.852681,0.44082 -1.261768,-5.17762 -1.578579,4.73401"
           id="path18"
           sodipodi:nodetypes="ccccccccccccc" />
        <path
           style="fill:none;stroke:none;stroke-width:0.1;stroke-linecap:round;stroke-linejoin:round;stroke-dasharray:none;stroke-opacity:1"
           d="m 44.412431,127.55116 0.955464,-3.51894 -2.2,-1.64707 2.506398,-3.47551 -0.302027,5.12991 2.152197,-3.21292 1.308084,-4.23966"
           id="path19"
           sodipodi:nodetypes="ccccccc" />
        <path
           style="fill:none;stroke:none;stroke-width:0.1;stroke-linecap:round;stroke-linejoin:round;stroke-dasharray:none;stroke-opacity:1"
           d="m 45.696817,118.89488 3.088592,-2.3437 3.181824,1.42382 -4.47765,2.88439 z"
           id="path20"
           sodipodi:nodetypes="ccccc" />
        <path
           style="fill:none;stroke:none;stroke-width:0.1;stroke-linecap:round;stroke-linejoin:round;stroke-dasharray:none;stroke-opacity:1"
           d="m 52.026155,117.91535 3.79462,-2.8914 -3.464653,0.24658 -3.556838,1.27521"
           id="path21"
           sodipodi:nodetypes="cccc" />
        <path
           style="fill:none;stroke:none;stroke-width:0.1;stroke-linecap:round;stroke-linejoin:round;stroke-dasharray:none;stroke-opacity:1"
           d="m 52.367907,115.32621 -0.354962,2.62252 5.304467,-0.31974 -1.481908,-2.5952 3.28494,0.26458 -1.8113,2.32047 2.824771,0.86524 -1.039511,-3.16551 4.020997,1.7576 -2.979396,1.42257 3.285794,2.13301 -0.333484,-3.56208 4.657426,5.23898 -4.32266,-1.67115 1.084178,1.68632 3.239464,-0.0137 -0.0105,-0.002"
           id="path22"
           sodipodi:nodetypes="ccccccccccccccccc" />
      </g>
      <path
         style="opacity:0.979167;fill:#000000;fill-opacity:1;fill-rule:evenodd;stroke:none;stroke-width:0.0668132;stroke-linecap:round;stroke-linejoin:round;stroke-miterlimit:0.7;stroke-dasharray:none;stroke-opacity:1"
         d="m 162.0889,481.03223 -4.61153,-0.72995 2.77188,-8.3085 c 1.82556,-5.47201 2.80938,-8.18781 2.88173,-7.95496 0.0604,0.19446 1.029,4.13216 2.15238,8.75045 1.12339,4.61829 2.08614,8.5361 2.13945,8.70625 0.12721,0.40599 0.19503,0.41188 -5.33391,-0.46329 z"
         id="path332"
         transform="scale(0.26458333)" />
      <path
         style="opacity:0.979167;fill:#000000;fill-opacity:1;fill-rule:evenodd;stroke:none;stroke-width:0.0668132;stroke-linecap:round;stroke-linejoin:round;stroke-miterlimit:0.7;stroke-dasharray:none;stroke-opacity:1"
         d="m 167.78806,480.56744 c -0.13142,-0.34734 -4.18123,-16.98778 -4.18123,-17.18042 0,-0.27011 7.33542,5.3502 7.38118,5.65537 0.0693,0.46184 -3.08606,11.82609 -3.19995,11.52505 z"
         id="path333"
         transform="scale(0.26458333)" />
      <path
         style="opacity:0.979167;fill:#000000;fill-opacity:1;fill-rule:evenodd;stroke:none;stroke-width:0.0668132;stroke-linecap:round;stroke-linejoin:round;stroke-miterlimit:0.7;stroke-dasharray:none;stroke-opacity:1"
         d="m 167.35723,465.33273 c -2.69162,-2.00735 -3.72313,-2.87279 -3.62392,-3.04043 0.62999,-1.06452 8.4575,-11.70401 8.49241,-11.54323 0.0612,0.28185 -0.95882,17.27075 -1.04092,17.33718 -0.0357,0.0289 -1.75813,-1.21017 -3.82757,-2.75352 z"
         id="path334"
         transform="scale(0.26458333)" />
      <path
         style="opacity:0.979167;fill:#000000;fill-opacity:1;fill-rule:evenodd;stroke:none;stroke-width:0.0668132;stroke-linecap:round;stroke-linejoin:round;stroke-miterlimit:0.7;stroke-dasharray:none;stroke-opacity:1"
         d="m 171.91534,466.7907 c 0,-0.68778 0.8225,-15.13782 0.92873,-16.31635 0.0392,-0.43434 0.35821,-0.13833 3.16726,2.93839 l 3.12372,3.42137 -3.45443,5.19335 c -1.89994,2.85634 -3.52437,5.26892 -3.60986,5.36128 -0.0913,0.0987 -0.15542,-0.14804 -0.15542,-0.59804 z"
         id="path335"
         transform="scale(0.26458333)" />
      <path
         style="opacity:0.979167;fill:#000000;fill-opacity:1;fill-rule:evenodd;stroke:none;stroke-width:0.0668132;stroke-linecap:round;stroke-linejoin:round;stroke-miterlimit:0.7;stroke-dasharray:none;stroke-opacity:1"
         d="m 176.29634,452.85139 -3.132,-3.4443 0.74552,-0.56666 c 8.13677,-6.18472 9.93866,-7.51514 9.986,-7.37312 0.0402,0.12067 -4.06073,13.75801 -4.42727,14.72247 -0.0221,0.0582 -1.44965,-1.44403 -3.17225,-3.33839 z"
         id="path336"
         transform="scale(0.26458333)" />
      <path
         style="opacity:0.979167;fill:#000000;fill-opacity:1;fill-rule:evenodd;stroke:none;stroke-width:0.0668132;stroke-linecap:round;stroke-linejoin:round;stroke-miterlimit:0.7;stroke-dasharray:none;stroke-opacity:1"
         d="m 180.22051,455.85493 c -0.0117,-0.43598 4.52767,-14.7088 4.67814,-14.70926 0.28664,-8.7e-4 10.70053,4.66943 10.70278,4.79986 0.001,0.0631 -1.17137,0.86852 -2.60547,1.78984 -1.4341,0.92131 -4.89451,3.15316 -7.68979,4.95965 -2.79528,1.80649 -5.08383,3.22845 -5.08566,3.15991 z"
         id="path337"
         transform="scale(0.26458333)" />
      <path
         style="opacity:0.979167;fill:#000000;fill-opacity:1;fill-rule:evenodd;stroke:none;stroke-width:0.0668132;stroke-linecap:round;stroke-linejoin:round;stroke-miterlimit:0.7;stroke-dasharray:none;stroke-opacity:1"
         d="m 191.00722,443.15021 c -2.8682,-1.28789 -5.35454,-2.40486 -5.52518,-2.48215 -0.22037,-0.0998 1.45969,-0.77397 5.79828,-2.32667 3.3597,-1.20237 6.15198,-2.1427 6.20506,-2.08962 0.10528,0.10528 -0.94927,8.29235 -1.1437,8.87922 -0.11172,0.33719 -0.46111,0.20746 -5.33446,-1.98078 z"
         id="path338"
         transform="scale(0.26458333)" />
      <path
         style="opacity:0.979167;fill:#000000;fill-opacity:1;fill-rule:evenodd;stroke:none;stroke-width:0.0668132;stroke-linecap:round;stroke-linejoin:round;stroke-miterlimit:0.7;stroke-dasharray:none;stroke-opacity:1"
         d="m 197.01763,444.76839 c 0,-0.22342 1.06864,-8.12783 1.14856,-8.49551 0.0761,-0.35021 0.32132,-0.38232 5.84483,-0.76533 3.17096,-0.21988 5.78745,-0.37358 5.81441,-0.34156 0.052,0.0618 -12.38824,9.56283 -12.6525,9.6631 -0.0854,0.0324 -0.1553,0.005 -0.1553,-0.0607 z"
         id="path339"
         transform="scale(0.26458333)" />
      <path
         style="opacity:0.979167;fill:#000000;fill-opacity:1;fill-rule:evenodd;stroke:none;stroke-width:0.0668132;stroke-linecap:round;stroke-linejoin:round;stroke-miterlimit:0.7;stroke-dasharray:none;stroke-opacity:1"
         d="m 197.56269,445.32809 c 0.0405,-0.0334 2.61924,-1.99624 5.73051,-4.36178 3.11127,-2.36553 6.10178,-4.64015 6.64557,-5.0547 l 0.98872,-0.75373 2.58082,4.53643 c 1.41945,2.49505 2.55655,4.56071 2.52688,4.59038 -0.0649,0.0649 -16.86546,1.10379 -17.85378,1.10403 -0.38081,9e-5 -0.65923,-0.0272 -0.61872,-0.0606 z"
         id="path340"
         transform="scale(0.26458333)" />
      <path
         style="opacity:0.979167;fill:#000000;fill-opacity:1;fill-rule:evenodd;stroke:none;stroke-width:0.0668132;stroke-linecap:round;stroke-linejoin:round;stroke-miterlimit:0.7;stroke-dasharray:none;stroke-opacity:1"
         d="m 215.96559,442.78432 c -2.74223,-4.73161 -4.28846,-7.51768 -4.21369,-7.59244 0.0899,-0.0899 10.88856,0.75913 10.99384,0.8644 0.0322,0.0322 -1.32416,1.82834 -3.01417,3.99138 l -3.07275,3.9328 z"
         id="path341"
         transform="scale(0.26458333)" />
      <path
         style="opacity:0.979167;fill:#000000;fill-opacity:1;fill-rule:evenodd;stroke:none;stroke-width:0.0668132;stroke-linecap:round;stroke-linejoin:round;stroke-miterlimit:0.7;stroke-dasharray:none;stroke-opacity:1"
         d="m 221.85475,445.87603 c -2.5279,-0.78303 -4.62434,-1.44662 -4.65874,-1.47464 -0.0344,-0.028 1.31788,-1.81896 3.00507,-3.97987 l 3.06761,-3.92891 1.71083,5.19944 c 1.72894,5.2545 1.84314,5.65491 1.60401,5.62453 -0.0729,-0.009 -2.20087,-0.65751 -4.72878,-1.44055 z"
         id="path342"
         transform="scale(0.26458333)" />
      <path
         style="opacity:0.979167;fill:#000000;fill-opacity:1;fill-rule:evenodd;stroke:none;stroke-width:0.0668132;stroke-linecap:round;stroke-linejoin:round;stroke-miterlimit:0.7;stroke-dasharray:none;stroke-opacity:1"
         d="m 225.67136,441.99262 c -1.0004,-3.00645 -1.79109,-5.48784 -1.7571,-5.51421 0.034,-0.0264 3.1839,1.31897 6.99979,2.98964 l 6.93798,3.03759 -1.98823,0.9431 c -1.09353,0.51871 -3.42493,1.63319 -5.18089,2.47663 l -3.19265,1.53352 z"
         id="path343"
         transform="scale(0.26458333)" />
      <path
         style="opacity:0.979167;fill:#000000;fill-opacity:1;fill-rule:evenodd;stroke:none;stroke-width:0.0668132;stroke-linecap:round;stroke-linejoin:round;stroke-miterlimit:0.7;stroke-dasharray:none;stroke-opacity:1"
         d="m 233.57335,451.60912 c -3.08303,-2.00947 -5.54906,-3.70287 -5.48007,-3.76311 0.30164,-0.26335 9.96758,-4.78311 10.05092,-4.69977 0.12689,0.12689 1.24447,12.14535 1.12789,12.12931 -0.0513,-0.007 -2.6157,-1.65695 -5.69874,-3.66643 z"
         id="path344"
         transform="scale(0.26458333)" />
      <path
         style="opacity:0.979167;fill:#000000;fill-opacity:1;fill-rule:evenodd;stroke:none;stroke-width:0.0668132;stroke-linecap:round;stroke-linejoin:round;stroke-miterlimit:0.7;stroke-dasharray:none;stroke-opacity:1"
         d="m 247.22221,458.55283 c -3.84048,-1.49752 -7.04359,-2.74562 -7.11804,-2.77356 -0.15167,-0.0569 -1.23222,-11.11614 -1.15281,-11.79881 0.0425,-0.36532 1.30061,0.96953 7.74755,8.22012 4.23325,4.76094 7.75801,8.7557 7.8328,8.87723 0.0828,0.13446 0.0454,0.21643 -0.0954,0.20938 -0.12727,-0.006 -3.37361,-1.23684 -7.21408,-2.73436 z"
         id="path345"
         transform="scale(0.26458333)" />
      <path
         style="opacity:0.979167;fill:#000000;fill-opacity:1;fill-rule:evenodd;stroke:none;stroke-width:0.0668132;stroke-linecap:round;stroke-linejoin:round;stroke-miterlimit:0.7;stroke-dasharray:none;stroke-opacity:1"
         d="m 242.29448,459.43408 c -0.91155,-1.41311 -1.61844,-2.60821 -1.57086,-2.65578 0.0769,-0.0769 13.37266,4.98111 13.55492,5.15665 0.0405,0.039 -2.26642,0.0704 -5.12652,0.0697 l -5.20018,-0.001 z"
         id="path346"
         transform="scale(0.26458333)" />
      <path
         style="opacity:0.979167;fill:#000000;fill-opacity:1;fill-rule:evenodd;stroke:none;stroke-width:0.0668132;stroke-linecap:round;stroke-linejoin:round;stroke-miterlimit:0.7;stroke-dasharray:none;stroke-opacity:1"
         d="m 198.27903,496.34476 c 0.0132,-1.14241 0.0728,-3.00316 0.13258,-4.13499 l 0.10862,-2.05788 11.04854,3.9597 c 6.0767,2.17783 11.20764,4.03319 11.4021,4.12303 0.22082,0.10202 -3.97687,0.16783 -11.18113,0.17531 l -11.53468,0.012 z"
         id="path348"
         transform="scale(0.26458333)" />
      <path
         style="opacity:0.979167;fill:#000000;fill-opacity:1;fill-rule:evenodd;stroke:none;stroke-width:0.0668132;stroke-linecap:round;stroke-linejoin:round;stroke-miterlimit:0.7;stroke-dasharray:none;stroke-opacity:1"
         d="m 211.21808,494.11632 c -6.23908,-2.24956 -11.33025,-4.09921 -11.31371,-4.11034 0.11131,-0.0749 42.18199,0.39248 42.25888,0.46947 0.132,0.13218 -18.88179,7.77459 -19.28226,7.75032 -0.17552,-0.0106 -5.42383,-1.85989 -11.66291,-4.10945 z"
         id="path350"
         transform="scale(0.26458333)" />
      <path
         style="opacity:0.979167;fill:#000000;fill-opacity:1;fill-rule:evenodd;stroke:none;stroke-width:0.0668132;stroke-linecap:round;stroke-linejoin:round;stroke-miterlimit:0.7;stroke-dasharray:none;stroke-opacity:1"
         d="m 228.9447,498.42655 -4.40053,-0.0931 9.55862,-3.84489 c 5.25724,-2.11469 9.63056,-3.84489 9.71849,-3.84489 0.0879,0 1.37093,1.78986 2.8511,3.97747 l 2.69121,3.97748 -8.00917,-0.0395 c -4.40505,-0.0217 -9.98942,-0.0814 -12.40972,-0.13259 z"
         id="path351"
         transform="scale(0.26458333)" />
      <path
         style="opacity:0.979167;fill:#000000;fill-opacity:1;fill-rule:evenodd;stroke:none;stroke-width:0.0668132;stroke-linecap:round;stroke-linejoin:round;stroke-miterlimit:0.7;stroke-dasharray:none;stroke-opacity:1"
         d="m 247.32606,494.5142 c -1.43155,-2.14792 -2.55372,-3.95441 -2.49371,-4.01442 0.06,-0.06 3.62527,-0.13959 7.9228,-0.17686 4.93852,-0.0428 7.74865,-0.006 7.63692,0.10018 -0.0972,0.0924 -2.40416,1.86294 -5.12652,3.93461 -2.72236,2.07167 -5.03681,3.83307 -5.14321,3.91424 -0.12682,0.0967 -1.08999,-1.19761 -2.79628,-3.75775 z"
         id="path352"
         transform="scale(0.26458333)" />
      <path
         style="opacity:0.979167;fill:#000000;fill-opacity:1;fill-rule:evenodd;stroke:none;stroke-width:0.0668132;stroke-linecap:round;stroke-linejoin:round;stroke-miterlimit:0.7;stroke-dasharray:none;stroke-opacity:1"
         d="m 254.7703,501.74217 -4.37145,-2.90554 5.25665,-4.02343 c 2.89117,-2.21288 5.28154,-3.9488 5.31194,-3.85759 0.0468,0.14047 -1.65984,13.09996 -1.78314,13.5402 -0.0234,0.0836 -2.0097,-1.15559 -4.414,-2.75364 z"
         id="path353"
         transform="scale(0.26458333)" />
      <path
         style="opacity:0.979167;fill:#000000;fill-opacity:1;fill-rule:evenodd;stroke:none;stroke-width:0.0668132;stroke-linecap:round;stroke-linejoin:round;stroke-miterlimit:0.7;stroke-dasharray:none;stroke-opacity:1"
         d="m 244.76943,512.61337 c 0.0365,-0.0944 1.25294,-3.11853 2.70328,-6.72029 l 2.63699,-6.54867 4.29668,2.8533 c 2.36317,1.56932 4.29884,2.89939 4.30149,2.95572 0.004,0.0824 -13.25373,7.32931 -13.84002,7.56528 -0.0906,0.0365 -0.13488,-0.0109 -0.0984,-0.10534 z"
         id="path354"
         transform="scale(0.26458333)" />
      <path
         style="opacity:0.979167;fill:#000000;fill-opacity:1;fill-rule:evenodd;stroke:none;stroke-width:0.0668132;stroke-linecap:round;stroke-linejoin:round;stroke-miterlimit:0.7;stroke-dasharray:none;stroke-opacity:1"
         d="m 248.38452,516.16374 c -1.81178,-1.52033 -3.24682,-2.81301 -3.18898,-2.87262 0.15117,-0.15578 13.24341,-7.23643 13.29517,-7.1904 0.0784,0.0697 -6.58142,12.82059 -6.69798,12.82397 -0.0627,0.002 -1.59642,-1.24061 -3.40821,-2.76095 z"
         id="path355"
         transform="scale(0.26458333)" />
      <path
         style="opacity:0.979167;fill:#000000;fill-opacity:1;fill-rule:evenodd;stroke:none;stroke-width:0.0668132;stroke-linecap:round;stroke-linejoin:round;stroke-miterlimit:0.7;stroke-dasharray:none;stroke-opacity:1"
         d="m 241.37994,528.89204 c -0.0188,-0.33312 3.27753,-14.9138 3.37165,-14.9138 0.0875,0 5.89626,4.80594 6.49225,5.3714 0.17382,0.16492 -0.29744,0.69457 -2.20971,2.48351 -1.33685,1.25064 -3.604,3.38493 -5.0381,4.74287 -1.4341,1.35793 -2.61134,2.40014 -2.61609,2.31602 z"
         id="path356"
         transform="scale(0.26458333)" />
      <path
         style="opacity:0.979167;fill:#000000;fill-opacity:1;fill-rule:evenodd;stroke:none;stroke-width:0.0668132;stroke-linecap:round;stroke-linejoin:round;stroke-miterlimit:0.7;stroke-dasharray:none;stroke-opacity:1"
         d="m 234.4275,528.6454 c -3.00217,-0.57289 -5.48569,-1.06882 -5.51894,-1.10207 -0.0332,-0.0333 3.32622,-3.06426 7.46549,-6.73558 4.13927,-3.67132 7.55162,-6.64944 7.583,-6.61806 0.0314,0.0314 -0.7183,3.51671 -1.66595,7.74517 -1.52336,6.79731 -1.76252,7.69183 -2.06406,7.72014 -0.18759,0.0176 -2.79738,-0.43671 -5.79954,-1.0096 z"
         id="path357"
         transform="scale(0.26458333)" />
      <path
         style="opacity:0.979167;fill:#000000;fill-opacity:1;fill-rule:evenodd;stroke:none;stroke-width:0.0668132;stroke-linecap:round;stroke-linejoin:round;stroke-miterlimit:0.7;stroke-dasharray:none;stroke-opacity:1"
         d="m 222.65025,539.20202 c 0,-0.0894 5.64653,-10.93856 5.75414,-11.05589 0.0956,-0.10421 11.03964,1.9825 11.03964,2.10493 0,0.0625 -3.36096,1.88917 -7.46881,4.05923 -4.10785,2.17005 -7.88645,4.17848 -8.3969,4.46316 -0.51044,0.28468 -0.92807,0.47754 -0.92807,0.42857 z"
         id="path358"
         transform="scale(0.26458333)" />
      <path
         style="opacity:0.979167;fill:#000000;fill-opacity:1;fill-rule:evenodd;stroke:none;stroke-width:0.0668132;stroke-linecap:round;stroke-linejoin:round;stroke-miterlimit:0.7;stroke-dasharray:none;stroke-opacity:1"
         d="m 212.7088,535.77054 c -4.83582,-2.10347 -8.75888,-3.858 -8.71793,-3.89896 0.0823,-0.0823 23.66921,-3.92682 23.72846,-3.86757 0.0762,0.0762 -5.93988,11.51377 -6.07606,11.55157 -0.0781,0.0217 -4.09865,-1.68158 -8.93447,-3.78504 z"
         id="path359"
         transform="scale(0.26458333)" />
      <path
         style="opacity:0.979167;fill:#000000;fill-opacity:1;fill-rule:evenodd;stroke:none;stroke-width:0.0668132;stroke-linecap:round;stroke-linejoin:round;stroke-miterlimit:0.7;stroke-dasharray:none;stroke-opacity:1"
         d="m 198.37326,538.68278 c -3.53306,-4.9818 -8.24447,-11.86422 -8.17162,-11.93707 0.0689,-0.0689 17.56993,7.46671 28.82468,12.41134 l 1.41422,0.62131 -10.64186,0.005 -10.64187,0.005 z"
         id="path360"
         transform="scale(0.26458333)" />
      <path
         style="opacity:0.979167;fill:#000000;fill-opacity:1;fill-rule:evenodd;stroke:none;stroke-width:0.0668132;stroke-linecap:round;stroke-linejoin:round;stroke-miterlimit:0.7;stroke-dasharray:none;stroke-opacity:1"
         d="m 188.00201,535.01074 c -7.37343,-3.28586 -9.45755,-4.28398 -9.45755,-4.52939 0,-0.24711 1.06408,-0.7414 4.94975,-2.29927 2.72236,-1.09147 5.06907,-1.98603 5.21491,-1.98791 0.21259,-0.003 8.93813,12.28243 9.16293,12.901 0.0324,0.0892 -0.0471,0.15495 -0.17678,0.14616 -0.12964,-0.009 -4.4916,-1.91255 -9.69326,-4.23059 z"
         id="path361"
         transform="scale(0.26458333)" />
      <path
         style="opacity:0.979167;fill:#000000;fill-opacity:1;fill-rule:evenodd;stroke:none;stroke-width:0.0668132;stroke-linecap:round;stroke-linejoin:round;stroke-miterlimit:0.7;stroke-dasharray:none;stroke-opacity:1"
         d="m 178.69715,528.94402 c 0.0537,-0.30716 0.34348,-2.42789 0.64395,-4.71273 0.30047,-2.28484 0.60212,-4.29217 0.67033,-4.46072 0.10287,-0.25422 0.80224,0.20766 4.1015,2.70876 2.18761,1.65837 3.99669,3.06908 4.02017,3.13489 0.0235,0.0658 -2.11197,0.96761 -4.74544,2.00398 l -4.78814,1.8843 z"
         id="path362"
         transform="scale(0.26458333)" />
      <path
         style="opacity:0.979167;fill:#000000;fill-opacity:1;fill-rule:evenodd;stroke:none;stroke-width:0.0668132;stroke-linecap:round;stroke-linejoin:round;stroke-miterlimit:0.7;stroke-dasharray:none;stroke-opacity:1"
         d="m 172.1805,524.57131 -5.65685,-5.67776 6.45235,0.12252 c 3.54879,0.0674 6.46345,0.13479 6.47701,0.1498 0.0553,0.0612 -1.35122,10.1406 -1.47824,10.59338 -0.13314,0.47457 -0.31356,0.31303 -5.79427,-5.18794 z"
         id="path363"
         transform="scale(0.26458333)" />
      <path
         style="opacity:0.979167;fill:#000000;fill-opacity:1;fill-rule:evenodd;stroke:none;stroke-width:0.0668132;stroke-linecap:round;stroke-linejoin:round;stroke-miterlimit:0.7;stroke-dasharray:none;stroke-opacity:1"
         d="m 170.26183,518.44197 -4.03999,-0.051 0.10304,-0.41053 c 0.12281,-0.48934 3.79032,-12.8211 3.91792,-13.17377 0.064,-0.1769 6.46957,9.67518 8.80779,13.54683 0.10466,0.1733 -0.39323,0.21219 -2.30766,0.18027 -1.34261,-0.0224 -4.2591,-0.0637 -6.4811,-0.0918 z"
         id="path364"
         transform="scale(0.26458333)" />
      <path
         style="opacity:0.979167;fill:#000000;fill-opacity:1;fill-rule:evenodd;stroke:none;stroke-width:0.0668132;stroke-linecap:round;stroke-linejoin:round;stroke-miterlimit:0.7;stroke-dasharray:none;stroke-opacity:1"
         d="m 162.38831,508.74891 c -1.8697,-4.92248 -3.36815,-8.98125 -3.3299,-9.0195 0.13133,-0.13133 10.73561,4.24726 10.73094,4.43089 -0.003,0.10099 -0.90397,3.18848 -2.00312,6.86109 l -1.99847,6.67748 z"
         id="path365"
         transform="scale(0.26458333)" />
      <path
         style="opacity:0.979167;fill:#000000;fill-opacity:1;fill-rule:evenodd;stroke:none;stroke-width:0.0668132;stroke-linecap:round;stroke-linejoin:round;stroke-miterlimit:0.7;stroke-dasharray:none;stroke-opacity:1"
         d="m 164.32971,501.13572 c -2.95675,-1.19978 -5.40662,-2.21212 -5.44415,-2.24965 -0.0375,-0.0375 1.90302,-3.55227 4.31233,-7.81054 3.9966,-7.06367 4.3921,-7.69694 4.51217,-7.22484 0.18905,0.74331 2.11955,18.75048 2.05201,19.14052 -0.0494,0.28528 -0.72675,0.0539 -5.43236,-1.85549 z"
         id="path367"
         transform="scale(0.26458333)" />
      <path
         style="opacity:0.979167;fill:#000000;fill-opacity:1;fill-rule:evenodd;stroke:none;stroke-width:0.0668132;stroke-linecap:round;stroke-linejoin:round;stroke-miterlimit:0.7;stroke-dasharray:none;stroke-opacity:1"
         d="m 158.58362,497.15832 c -0.17081,-1.05141 -1.18739,-16.09605 -1.09395,-16.1895 0.0497,-0.0497 2.30615,0.25254 5.01436,0.67161 l 4.92402,0.76193 -4.30583,7.60602 c -2.3682,4.18331 -4.33654,7.63673 -4.37408,7.67427 -0.0375,0.0375 -0.11158,-0.1984 -0.16452,-0.52433 z"
         id="path370"
         transform="scale(0.26458333)" />
    </g>
  </g>
</svg>
