<?xml version="1.0" encoding="UTF-8" standalone="no"?>
<!-- Created with Inkscape (http://www.inkscape.org/) -->

<svg
   width="105mm"
   height="105mm"
   viewBox="0 0 105 105"
   version="1.1"
   id="svg1"
   inkscape:version="1.3.2 (091e20e, 2023-11-25, custom)"
   sodipodi:docname="logo kwadrat Geo-AID white.svg"
   xmlns:inkscape="http://www.inkscape.org/namespaces/inkscape"
   xmlns:sodipodi="http://sodipodi.sourceforge.net/DTD/sodipodi-0.dtd"
   xmlns="http://www.w3.org/2000/svg"
   xmlns:svg="http://www.w3.org/2000/svg">
  <sodipodi:namedview
     id="namedview1"
     pagecolor="#ffffff"
     bordercolor="#111111"
     borderopacity="1"
     inkscape:showpageshadow="0"
     inkscape:pageopacity="0"
     inkscape:pagecheckerboard="1"
     inkscape:deskcolor="#d1d1d1"
     inkscape:document-units="mm"
     showguides="true"
     inkscape:zoom="0.73139029"
     inkscape:cx="226.965"
     inkscape:cy="388.30157"
     inkscape:window-width="1435"
     inkscape:window-height="1040"
     inkscape:window-x="848"
     inkscape:window-y="215"
     inkscape:window-maximized="0"
     inkscape:current-layer="layer1">
    <sodipodi:guide
       position="52.816077,159.9866"
       orientation="1,0"
       id="guide1"
       inkscape:locked="false" />
  </sodipodi:namedview>
  <defs
     id="defs1" />
  <g
     inkscape:label="Warstwa 1"
     inkscape:groupmode="layer"
     id="layer1">
    <g
       id="g632"
       transform="matrix(3.7601038,0,0,3.7601038,-155.52514,-432.11073)">
      <g
         id="g43"
         style="stroke:none;stroke-width:0.1;stroke-dasharray:none;stroke-opacity:1">
        <path
           style="fill:none;stroke:none;stroke-width:0.1;stroke-linecap:round;stroke-linejoin:round;stroke-dasharray:none;stroke-opacity:1"
           d="m 52.413331,129.56555 -0.01767,2.36243 6.664156,0.0219 z"
           id="path10" />
        <path
           style="fill:none;stroke:none;stroke-width:0.1;stroke-linecap:round;stroke-linejoin:round;stroke-dasharray:none;stroke-opacity:1"
           d="m 52.420577,129.56599 12.177736,0.11426 -5.640739,2.26892 7.160243,0.053 -1.555559,-2.32266 4.613645,-0.0278 -0.547054,4.00246 -2.515997,-1.66643 3.044971,-2.32884"
           id="path11"
           sodipodi:nodetypes="ccccccccc" />
        <path
           style="fill:none;stroke:none;stroke-width:0.1;stroke-linecap:round;stroke-linejoin:round;stroke-dasharray:none;stroke-opacity:1"
           d="m 66.144208,131.98802 -1.555739,3.86831 4.026746,-2.1749 -1.964454,3.77372 -1.956232,-1.64257 -0.989901,4.41862 2.937399,-2.76487"
           id="path12"
           sodipodi:nodetypes="ccccccc" />
        <path
           style="fill:none;stroke:none;stroke-width:0.1;stroke-linecap:round;stroke-linejoin:round;stroke-dasharray:none;stroke-opacity:1"
           d="m 63.663245,140.24858 -4.964944,2.62988 1.691676,-3.2421 z"
           id="path13"
           sodipodi:nodetypes="cccc" />
        <path
           style="fill:none;stroke:none;stroke-width:0.1;stroke-linecap:round;stroke-linejoin:round;stroke-dasharray:none;stroke-opacity:1"
           d="m 64.698454,135.77642 -4.246357,3.76674"
           id="path14"
           sodipodi:nodetypes="cc" />
        <path
           style="fill:none;stroke:none;stroke-width:0.1;stroke-linecap:round;stroke-linejoin:round;stroke-dasharray:none;stroke-opacity:1"
           d="m 58.684416,142.88397 -6.03368,0.0199 -2.639735,-3.79024 z"
           id="path15" />
        <path
           style="fill:none;stroke:none;stroke-width:0.1;stroke-linecap:round;stroke-linejoin:round;stroke-dasharray:none;stroke-opacity:1"
           d="m 60.393174,139.59088 v 0 l -6.728967,1.08974"
           id="path16" />
        <path
           style="fill:none;stroke:none;stroke-width:0.1;stroke-linecap:round;stroke-linejoin:round;stroke-dasharray:none;stroke-opacity:1"
           d="m 52.631641,142.91698 -5.496065,-2.43919 0.436025,-3.19764 2.407944,1.82055 -2.832185,1.12653"
           id="path17"
           sodipodi:nodetypes="ccccc" />
        <path
           style="fill:none;stroke:none;stroke-width:0.1;stroke-linecap:round;stroke-linejoin:round;stroke-dasharray:none;stroke-opacity:1"
           d="m 47.097942,140.43163 -3.226684,-3.21909 3.685469,0.07 -2.518433,-3.97611 -1.164756,3.90777 -1.970845,-5.18641 2.510654,-4.43597 0.62458,5.71518 -3.1229,-1.26473 -0.353537,-4.90384 2.852681,0.44082 -1.261768,-5.17762 -1.578579,4.73401"
           id="path18"
           sodipodi:nodetypes="ccccccccccccc" />
        <path
           style="fill:none;stroke:none;stroke-width:0.1;stroke-linecap:round;stroke-linejoin:round;stroke-dasharray:none;stroke-opacity:1"
           d="m 44.412431,127.55116 0.955464,-3.51894 -2.2,-1.64707 2.506398,-3.47551 -0.302027,5.12991 2.152197,-3.21292 1.308084,-4.23966"
           id="path19"
           sodipodi:nodetypes="ccccccc" />
        <path
           style="fill:none;stroke:none;stroke-width:0.1;stroke-linecap:round;stroke-linejoin:round;stroke-dasharray:none;stroke-opacity:1"
           d="m 45.696817,118.89488 3.088592,-2.3437 3.181824,1.42382 -4.47765,2.88439 z"
           id="path20"
           sodipodi:nodetypes="ccccc" />
        <path
           style="fill:none;stroke:none;stroke-width:0.1;stroke-linecap:round;stroke-linejoin:round;stroke-dasharray:none;stroke-opacity:1"
           d="m 52.026155,117.91535 3.79462,-2.8914 -3.464653,0.24658 -3.556838,1.27521"
           id="path21"
           sodipodi:nodetypes="cccc" />
        <path
           style="fill:none;stroke:none;stroke-width:0.1;stroke-linecap:round;stroke-linejoin:round;stroke-dasharray:none;stroke-opacity:1"
           d="m 52.367907,115.32621 -0.354962,2.62252 5.304467,-0.31974 -1.481908,-2.5952 3.28494,0.26458 -1.8113,2.32047 2.824771,0.86524 -1.039511,-3.16551 4.020997,1.7576 -2.979396,1.42257 3.285794,2.13301 -0.333484,-3.56208 4.657426,5.23898 -4.32266,-1.67115 1.084178,1.68632 3.239464,-0.0137 -0.0105,-0.002"
           id="path22"
           sodipodi:nodetypes="ccccccccccccccccc" />
      </g>
      <path
         style="opacity:0.979167;fill:#000000;fill-opacity:1;fill-rule:evenodd;stroke:none;stroke-width:0.0668132;stroke-linecap:round;stroke-linejoin:round;stroke-miterlimit:0.7;stroke-dasharray:none;stroke-opacity:1"
         d="m 162.0889,481.03223 -4.61153,-0.72995 2.77188,-8.3085 c 1.82556,-5.47201 2.80938,-8.18781 2.88173,-7.95496 0.0604,0.19446 1.029,4.13216 2.15238,8.75045 1.12339,4.61829 2.08614,8.5361 2.13945,8.70625 0.12721,0.40599 0.19503,0.41188 -5.33391,-0.46329 z"
         id="path332"
         transform="scale(0.26458333)" />
      <path
         style="opacity:0.979167;fill:#000000;fill-opacity:1;fill-rule:evenodd;stroke:none;stroke-width:0.0668132;stroke-linecap:round;stroke-linejoin:round;stroke-miterlimit:0.7;stroke-dasharray:none;stroke-opacity:1"
         d="m 167.78806,480.56744 c -0.13142,-0.34734 -4.18123,-16.98778 -4.18123,-17.18042 0,-0.27011 7.33542,5.3502 7.38118,5.65537 0.0693,0.46184 -3.08606,11.82609 -3.19995,11.52505 z"
         id="path333"
         transform="scale(0.26458333)" />
      <path
         style="opacity:0.979167;fill:#000000;fill-opacity:1;fill-rule:evenodd;stroke:none;stroke-width:0.0668132;stroke-linecap:round;stroke-linejoin:round;stroke-miterlimit:0.7;stroke-dasharray:none;stroke-opacity:1"
         d="m 167.35723,465.33273 c -2.69162,-2.00735 -3.72313,-2.87279 -3.62392,-3.04043 0.62999,-1.06452 8.4575,-11.70401 8.49241,-11.54323 0.0612,0.28185 -0.95882,17.27075 -1.04092,17.33718 -0.0357,0.0289 -1.75813,-1.21017 -3.82757,-2.75352 z"
         id="path334"
         transform="scale(0.26458333)" />
      <path
         style="opacity:0.979167;fill:#000000;fill-opacity:1;fill-rule:evenodd;stroke:none;stroke-width:0.0668132;stroke-linecap:round;stroke-linejoin:round;stroke-miterlimit:0.7;stroke-dasharray:none;stroke-opacity:1"
         d="m 171.91534,466.7907 c 0,-0.68778 0.8225,-15.13782 0.92873,-16.31635 0.0392,-0.43434 0.35821,-0.13833 3.16726,2.93839 l 3.12372,3.42137 -3.45443,5.19335 c -1.89994,2.85634 -3.52437,5.26892 -3.60986,5.36128 -0.0913,0.0987 -0.15542,-0.14804 -0.15542,-0.59804 z"
         id="path335"
         transform="scale(0.26458333)" />
      <path
         style="opacity:0.979167;fill:#000000;fill-opacity:1;fill-rule:evenodd;stroke:none;stroke-width:0.0668132;stroke-linecap:round;stroke-linejoin:round;stroke-miterlimit:0.7;stroke-dasharray:none;stroke-opacity:1"
         d="m 176.29634,452.85139 -3.132,-3.4443 0.74552,-0.56666 c 8.13677,-6.18472 9.93866,-7.51514 9.986,-7.37312 0.0402,0.12067 -4.06073,13.75801 -4.42727,14.72247 -0.0221,0.0582 -1.44965,-1.44403 -3.17225,-3.33839 z"
         id="path336"
         transform="scale(0.26458333)" />
      <path
         style="opacity:0.979167;fill:#000000;fill-opacity:1;fill-rule:evenodd;stroke:none;stroke-width:0.0668132;stroke-linecap:round;stroke-linejoin:round;stroke-miterlimit:0.7;stroke-dasharray:none;stroke-opacity:1"
         d="m 180.22051,455.85493 c -0.0117,-0.43598 4.52767,-14.7088 4.67814,-14.70926 0.28664,-8.7e-4 10.70053,4.66943 10.70278,4.79986 0.001,0.0631 -1.17137,0.86852 -2.60547,1.78984 -1.4341,0.92131 -4.89451,3.15316 -7.68979,4.95965 -2.79528,1.80649 -5.08383,3.22845 -5.08566,3.15991 z"
         id="path337"
         transform="scale(0.26458333)" />
      <path
         style="opacity:0.979167;fill:#000000;fill-opacity:1;fill-rule:evenodd;stroke:none;stroke-width:0.0668132;stroke-linecap:round;stroke-linejoin:round;stroke-miterlimit:0.7;stroke-dasharray:none;stroke-opacity:1"
         d="m 191.00722,443.15021 c -2.8682,-1.28789 -5.35454,-2.40486 -5.52518,-2.48215 -0.22037,-0.0998 1.45969,-0.77397 5.79828,-2.32667 3.3597,-1.20237 6.15198,-2.1427 6.20506,-2.08962 0.10528,0.10528 -0.94927,8.29235 -1.1437,8.87922 -0.11172,0.33719 -0.46111,0.20746 -5.33446,-1.98078 z"
         id="path338"
         transform="scale(0.26458333)" />
      <path
         style="opacity:0.979167;fill:#000000;fill-opacity:1;fill-rule:evenodd;stroke:none;stroke-width:0.0668132;stroke-linecap:round;stroke-linejoin:round;stroke-miterlimit:0.7;stroke-dasharray:none;stroke-opacity:1"
         d="m 197.01763,444.76839 c 0,-0.22342 1.06864,-8.12783 1.14856,-8.49551 0.0761,-0.35021 0.32132,-0.38232 5.84483,-0.76533 3.17096,-0.21988 5.78745,-0.37358 5.81441,-0.34156 0.052,0.0618 -12.38824,9.56283 -12.6525,9.6631 -0.0854,0.0324 -0.1553,0.005 -0.1553,-0.0607 z"
         id="path339"
         transform="scale(0.26458333)" />
      <path
         style="opacity:0.979167;fill:#000000;fill-opacity:1;fill-rule:evenodd;stroke:none;stroke-width:0.0668132;stroke-linecap:round;stroke-linejoin:round;stroke-miterlimit:0.7;stroke-dasharray:none;stroke-opacity:1"
         d="m 197.56269,445.32809 c 0.0405,-0.0334 2.61924,-1.99624 5.73051,-4.36178 3.11127,-2.36553 6.10178,-4.64015 6.64557,-5.0547 l 0.98872,-0.75373 2.58082,4.53643 c 1.41945,2.49505 2.55655,4.56071 2.52688,4.59038 -0.0649,0.0649 -16.86546,1.10379 -17.85378,1.10403 -0.38081,9e-5 -0.65923,-0.0272 -0.61872,-0.0606 z"
         id="path340"
         transform="scale(0.26458333)" />
      <path
         style="opacity:0.979167;fill:#000000;fill-opacity:1;fill-rule:evenodd;stroke:none;stroke-width:0.0668132;stroke-linecap:round;stroke-linejoin:round;stroke-miterlimit:0.7;stroke-dasharray:none;stroke-opacity:1"
         d="m 215.96559,442.78432 c -2.74223,-4.73161 -4.28846,-7.51768 -4.21369,-7.59244 0.0899,-0.0899 10.88856,0.75913 10.99384,0.8644 0.0322,0.0322 -1.32416,1.82834 -3.01417,3.99138 l -3.07275,3.9328 z"
         id="path341"
         transform="scale(0.26458333)" />
      <path
         style="opacity:0.979167;fill:#000000;fill-opacity:1;fill-rule:evenodd;stroke:none;stroke-width:0.0668132;stroke-linecap:round;stroke-linejoin:round;stroke-miterlimit:0.7;stroke-dasharray:none;stroke-opacity:1"
         d="m 221.85475,445.87603 c -2.5279,-0.78303 -4.62434,-1.44662 -4.65874,-1.47464 -0.0344,-0.028 1.31788,-1.81896 3.00507,-3.97987 l 3.06761,-3.92891 1.71083,5.19944 c 1.72894,5.2545 1.84314,5.65491 1.60401,5.62453 -0.0729,-0.009 -2.20087,-0.65751 -4.72878,-1.44055 z"
         id="path342"
         transform="scale(0.26458333)" />
      <path
         style="opacity:0.979167;fill:#000000;fill-opacity:1;fill-rule:evenodd;stroke:none;stroke-width:0.0668132;stroke-linecap:round;stroke-linejoin:round;stroke-miterlimit:0.7;stroke-dasharray:none;stroke-opacity:1"
         d="m 225.67136,441.99262 c -1.0004,-3.00645 -1.79109,-5.48784 -1.7571,-5.51421 0.034,-0.0264 3.1839,1.31897 6.99979,2.98964 l 6.93798,3.03759 -1.98823,0.9431 c -1.09353,0.51871 -3.42493,1.63319 -5.18089,2.47663 l -3.19265,1.53352 z"
         id="path343"
         transform="scale(0.26458333)" />
      <path
         style="opacity:0.979167;fill:#000000;fill-opacity:1;fill-rule:evenodd;stroke:none;stroke-width:0.0668132;stroke-linecap:round;stroke-linejoin:round;stroke-miterlimit:0.7;stroke-dasharray:none;stroke-opacity:1"
         d="m 233.57335,451.60912 c -3.08303,-2.00947 -5.54906,-3.70287 -5.48007,-3.76311 0.30164,-0.26335 9.96758,-4.78311 10.05092,-4.69977 0.12689,0.12689 1.24447,12.14535 1.12789,12.12931 -0.0513,-0.007 -2.6157,-1.65695 -5.69874,-3.66643 z"
         id="path344"
         transform="scale(0.26458333)" />
      <path
         style="opacity:0.979167;fill:#000000;fill-opacity:1;fill-rule:evenodd;stroke:none;stroke-width:0.0668132;stroke-linecap:round;stroke-linejoin:round;stroke-miterlimit:0.7;stroke-dasharray:none;stroke-opacity:1"
         d="m 247.22221,458.55283 c -3.84048,-1.49752 -7.04359,-2.74562 -7.11804,-2.77356 -0.15167,-0.0569 -1.23222,-11.11614 -1.15281,-11.79881 0.0425,-0.36532 1.30061,0.96953 7.74755,8.22012 4.23325,4.76094 7.75801,8.7557 7.8328,8.87723 0.0828,0.13446 0.0454,0.21643 -0.0954,0.20938 -0.12727,-0.006 -3.37361,-1.23684 -7.21408,-2.73436 z"
         id="path345"
         transform="scale(0.26458333)" />
      <path
         style="opacity:0.979167;fill:#000000;fill-opacity:1;fill-rule:evenodd;stroke:none;stroke-width:0.0668132;stroke-linecap:round;stroke-linejoin:round;stroke-miterlimit:0.7;stroke-dasharray:none;stroke-opacity:1"
         d="m 242.29448,459.43408 c -0.91155,-1.41311 -1.61844,-2.60821 -1.57086,-2.65578 0.0769,-0.0769 13.37266,4.98111 13.55492,5.15665 0.0405,0.039 -2.26642,0.0704 -5.12652,0.0697 l -5.20018,-0.001 z"
         id="path346"
         transform="scale(0.26458333)" />
      <path
         style="opacity:0.979167;fill:#000000;fill-opacity:1;fill-rule:evenodd;stroke:none;stroke-width:0.0668132;stroke-linecap:round;stroke-linejoin:round;stroke-miterlimit:0.7;stroke-dasharray:none;stroke-opacity:1"
         d="m 198.27903,496.34476 c 0.0132,-1.14241 0.0728,-3.00316 0.13258,-4.13499 l 0.10862,-2.05788 11.04854,3.9597 c 6.0767,2.17783 11.20764,4.03319 11.4021,4.12303 0.22082,0.10202 -3.97687,0.16783 -11.18113,0.17531 l -11.53468,0.012 z"
         id="path348"
         transform="scale(0.26458333)" />
      <path
         style="opacity:0.979167;fill:#000000;fill-opacity:1;fill-rule:evenodd;stroke:none;stroke-width:0.0668132;stroke-linecap:round;stroke-linejoin:round;stroke-miterlimit:0.7;stroke-dasharray:none;stroke-opacity:1"
         d="m 211.21808,494.11632 c -6.23908,-2.24956 -11.33025,-4.09921 -11.31371,-4.11034 0.11131,-0.0749 42.18199,0.39248 42.25888,0.46947 0.132,0.13218 -18.88179,7.77459 -19.28226,7.75032 -0.17552,-0.0106 -5.42383,-1.85989 -11.66291,-4.10945 z"
         id="path350"
         transform="scale(0.26458333)" />
      <path
         style="opacity:0.979167;fill:#000000;fill-opacity:1;fill-rule:evenodd;stroke:none;stroke-width:0.0668132;stroke-linecap:round;stroke-linejoin:round;stroke-miterlimit:0.7;stroke-dasharray:none;stroke-opacity:1"
         d="m 228.9447,498.42655 -4.40053,-0.0931 9.55862,-3.84489 c 5.25724,-2.11469 9.63056,-3.84489 9.71849,-3.84489 0.0879,0 1.37093,1.78986 2.8511,3.97747 l 2.69121,3.97748 -8.00917,-0.0395 c -4.40505,-0.0217 -9.98942,-0.0814 -12.40972,-0.13259 z"
         id="path351"
         transform="scale(0.26458333)" />
      <path
         style="opacity:0.979167;fill:#000000;fill-opacity:1;fill-rule:evenodd;stroke:none;stroke-width:0.0668132;stroke-linecap:round;stroke-linejoin:round;stroke-miterlimit:0.7;stroke-dasharray:none;stroke-opacity:1"
         d="m 247.32606,494.5142 c -1.43155,-2.14792 -2.55372,-3.95441 -2.49371,-4.01442 0.06,-0.06 3.62527,-0.13959 7.9228,-0.17686 4.93852,-0.0428 7.74865,-0.006 7.63692,0.10018 -0.0972,0.0924 -2.40416,1.86294 -5.12652,3.93461 -2.72236,2.07167 -5.03681,3.83307 -5.14321,3.91424 -0.12682,0.0967 -1.08999,-1.19761 -2.79628,-3.75775 z"
         id="path352"
         transform="scale(0.26458333)" />
      <path
         style="opacity:0.979167;fill:#000000;fill-opacity:1;fill-rule:evenodd;stroke:none;stroke-width:0.0668132;stroke-linecap:round;stroke-linejoin:round;stroke-miterlimit:0.7;stroke-dasharray:none;stroke-opacity:1"
         d="m 254.7703,501.74217 -4.37145,-2.90554 5.25665,-4.02343 c 2.89117,-2.21288 5.28154,-3.9488 5.31194,-3.85759 0.0468,0.14047 -1.65984,13.09996 -1.78314,13.5402 -0.0234,0.0836 -2.0097,-1.15559 -4.414,-2.75364 z"
         id="path353"
         transform="scale(0.26458333)" />
      <path
         style="opacity:0.979167;fill:#000000;fill-opacity:1;fill-rule:evenodd;stroke:none;stroke-width:0.0668132;stroke-linecap:round;stroke-linejoin:round;stroke-miterlimit:0.7;stroke-dasharray:none;stroke-opacity:1"
         d="m 244.76943,512.61337 c 0.0365,-0.0944 1.25294,-3.11853 2.70328,-6.72029 l 2.63699,-6.54867 4.29668,2.8533 c 2.36317,1.56932 4.29884,2.89939 4.30149,2.95572 0.004,0.0824 -13.25373,7.32931 -13.84002,7.56528 -0.0906,0.0365 -0.13488,-0.0109 -0.0984,-0.10534 z"
         id="path354"
         transform="scale(0.26458333)" />
      <path
         style="opacity:0.979167;fill:#000000;fill-opacity:1;fill-rule:evenodd;stroke:none;stroke-width:0.0668132;stroke-linecap:round;stroke-linejoin:round;stroke-miterlimit:0.7;stroke-dasharray:none;stroke-opacity:1"
         d="m 248.38452,516.16374 c -1.81178,-1.52033 -3.24682,-2.81301 -3.18898,-2.87262 0.15117,-0.15578 13.24341,-7.23643 13.29517,-7.1904 0.0784,0.0697 -6.58142,12.82059 -6.69798,12.82397 -0.0627,0.002 -1.59642,-1.24061 -3.40821,-2.76095 z"
         id="path355"
         transform="scale(0.26458333)" />
      <path
         style="opacity:0.979167;fill:#000000;fill-opacity:1;fill-rule:evenodd;stroke:none;stroke-width:0.0668132;stroke-linecap:round;stroke-linejoin:round;stroke-miterlimit:0.7;stroke-dasharray:none;stroke-opacity:1"
         d="m 241.37994,528.89204 c -0.0188,-0.33312 3.27753,-14.9138 3.37165,-14.9138 0.0875,0 5.89626,4.80594 6.49225,5.3714 0.17382,0.16492 -0.29744,0.69457 -2.20971,2.48351 -1.33685,1.25064 -3.604,3.38493 -5.0381,4.74287 -1.4341,1.35793 -2.61134,2.40014 -2.61609,2.31602 z"
         id="path356"
         transform="scale(0.26458333)" />
      <path
         style="opacity:0.979167;fill:#000000;fill-opacity:1;fill-rule:evenodd;stroke:none;stroke-width:0.0668132;stroke-linecap:round;stroke-linejoin:round;stroke-miterlimit:0.7;stroke-dasharray:none;stroke-opacity:1"
         d="m 234.4275,528.6454 c -3.00217,-0.57289 -5.48569,-1.06882 -5.51894,-1.10207 -0.0332,-0.0333 3.32622,-3.06426 7.46549,-6.73558 4.13927,-3.67132 7.55162,-6.64944 7.583,-6.61806 0.0314,0.0314 -0.7183,3.51671 -1.66595,7.74517 -1.52336,6.79731 -1.76252,7.69183 -2.06406,7.72014 -0.18759,0.0176 -2.79738,-0.43671 -5.79954,-1.0096 z"
         id="path357"
         transform="scale(0.26458333)" />
      <path
         style="opacity:0.979167;fill:#000000;fill-opacity:1;fill-rule:evenodd;stroke:none;stroke-width:0.0668132;stroke-linecap:round;stroke-linejoin:round;stroke-miterlimit:0.7;stroke-dasharray:none;stroke-opacity:1"
         d="m 222.65025,539.20202 c 0,-0.0894 5.64653,-10.93856 5.75414,-11.05589 0.0956,-0.10421 11.03964,1.9825 11.03964,2.10493 0,0.0625 -3.36096,1.88917 -7.46881,4.05923 -4.10785,2.17005 -7.88645,4.17848 -8.3969,4.46316 -0.51044,0.28468 -0.92807,0.47754 -0.92807,0.42857 z"
         id="path358"
         transform="scale(0.26458333)" />
      <path
         style="opacity:0.979167;fill:#000000;fill-opacity:1;fill-rule:evenodd;stroke:none;stroke-width:0.0668132;stroke-linecap:round;stroke-linejoin:round;stroke-miterlimit:0.7;stroke-dasharray:none;stroke-opacity:1"
         d="m 212.7088,535.77054 c -4.83582,-2.10347 -8.75888,-3.858 -8.71793,-3.89896 0.0823,-0.0823 23.66921,-3.92682 23.72846,-3.86757 0.0762,0.0762 -5.93988,11.51377 -6.07606,11.55157 -0.0781,0.0217 -4.09865,-1.68158 -8.93447,-3.78504 z"
         id="path359"
         transform="scale(0.26458333)" />
      <path
         style="opacity:0.979167;fill:#000000;fill-opacity:1;fill-rule:evenodd;stroke:none;stroke-width:0.0668132;stroke-linecap:round;stroke-linejoin:round;stroke-miterlimit:0.7;stroke-dasharray:none;stroke-opacity:1"
         d="m 198.37326,538.68278 c -3.53306,-4.9818 -8.24447,-11.86422 -8.17162,-11.93707 0.0689,-0.0689 17.56993,7.46671 28.82468,12.41134 l 1.41422,0.62131 -10.64186,0.005 -10.64187,0.005 z"
         id="path360"
         transform="scale(0.26458333)" />
      <path
         style="opacity:0.979167;fill:#000000;fill-opacity:1;fill-rule:evenodd;stroke:none;stroke-width:0.0668132;stroke-linecap:round;stroke-linejoin:round;stroke-miterlimit:0.7;stroke-dasharray:none;stroke-opacity:1"
         d="m 188.00201,535.01074 c -7.37343,-3.28586 -9.45755,-4.28398 -9.45755,-4.52939 0,-0.24711 1.06408,-0.7414 4.94975,-2.29927 2.72236,-1.09147 5.06907,-1.98603 5.21491,-1.98791 0.21259,-0.003 8.93813,12.28243 9.16293,12.901 0.0324,0.0892 -0.0471,0.15495 -0.17678,0.14616 -0.12964,-0.009 -4.4916,-1.91255 -9.69326,-4.23059 z"
         id="path361"
         transform="scale(0.26458333)" />
      <path
         style="opacity:0.979167;fill:#000000;fill-opacity:1;fill-rule:evenodd;stroke:none;stroke-width:0.0668132;stroke-linecap:round;stroke-linejoin:round;stroke-miterlimit:0.7;stroke-dasharray:none;stroke-opacity:1"
         d="m 178.69715,528.94402 c 0.0537,-0.30716 0.34348,-2.42789 0.64395,-4.71273 0.30047,-2.28484 0.60212,-4.29217 0.67033,-4.46072 0.10287,-0.25422 0.80224,0.20766 4.1015,2.70876 2.18761,1.65837 3.99669,3.06908 4.02017,3.13489 0.0235,0.0658 -2.11197,0.96761 -4.74544,2.00398 l -4.78814,1.8843 z"
         id="path362"
         transform="scale(0.26458333)" />
      <path
         style="opacity:0.979167;fill:#000000;fill-opacity:1;fill-rule:evenodd;stroke:none;stroke-width:0.0668132;stroke-linecap:round;stroke-linejoin:round;stroke-miterlimit:0.7;stroke-dasharray:none;stroke-opacity:1"
         d="m 172.1805,524.57131 -5.65685,-5.67776 6.45235,0.12252 c 3.54879,0.0674 6.46345,0.13479 6.47701,0.1498 0.0553,0.0612 -1.35122,10.1406 -1.47824,10.59338 -0.13314,0.47457 -0.31356,0.31303 -5.79427,-5.18794 z"
         id="path363"
         transform="scale(0.26458333)" />
      <path
         style="opacity:0.979167;fill:#000000;fill-opacity:1;fill-rule:evenodd;stroke:none;stroke-width:0.0668132;stroke-linecap:round;stroke-linejoin:round;stroke-miterlimit:0.7;stroke-dasharray:none;stroke-opacity:1"
         d="m 170.26183,518.44197 -4.03999,-0.051 0.10304,-0.41053 c 0.12281,-0.48934 3.79032,-12.8211 3.91792,-13.17377 0.064,-0.1769 6.46957,9.67518 8.80779,13.54683 0.10466,0.1733 -0.39323,0.21219 -2.30766,0.18027 -1.34261,-0.0224 -4.2591,-0.0637 -6.4811,-0.0918 z"
         id="path364"
         transform="scale(0.26458333)" />
      <path
         style="opacity:0.979167;fill:#000000;fill-opacity:1;fill-rule:evenodd;stroke:none;stroke-width:0.0668132;stroke-linecap:round;stroke-linejoin:round;stroke-miterlimit:0.7;stroke-dasharray:none;stroke-opacity:1"
         d="m 162.38831,508.74891 c -1.8697,-4.92248 -3.36815,-8.98125 -3.3299,-9.0195 0.13133,-0.13133 10.73561,4.24726 10.73094,4.43089 -0.003,0.10099 -0.90397,3.18848 -2.00312,6.86109 l -1.99847,6.67748 z"
         id="path365"
         transform="scale(0.26458333)" />
      <path
         style="opacity:0.979167;fill:#000000;fill-opacity:1;fill-rule:evenodd;stroke:none;stroke-width:0.0668132;stroke-linecap:round;stroke-linejoin:round;stroke-miterlimit:0.7;stroke-dasharray:none;stroke-opacity:1"
         d="m 164.32971,501.13572 c -2.95675,-1.19978 -5.40662,-2.21212 -5.44415,-2.24965 -0.0375,-0.0375 1.90302,-3.55227 4.31233,-7.81054 3.9966,-7.06367 4.3921,-7.69694 4.51217,-7.22484 0.18905,0.74331 2.11955,18.75048 2.05201,19.14052 -0.0494,0.28528 -0.72675,0.0539 -5.43236,-1.85549 z"
         id="path367"
         transform="scale(0.26458333)" />
      <path
         style="opacity:0.979167;fill:#000000;fill-opacity:1;fill-rule:evenodd;stroke:none;stroke-width:0.0668132;stroke-linecap:round;stroke-linejoin:round;stroke-miterlimit:0.7;stroke-dasharray:none;stroke-opacity:1"
         d="m 158.58362,497.15832 c -0.17081,-1.05141 -1.18739,-16.09605 -1.09395,-16.1895 0.0497,-0.0497 2.30615,0.25254 5.01436,0.67161 l 4.92402,0.76193 -4.30583,7.60602 c -2.3682,4.18331 -4.33654,7.63673 -4.37408,7.67427 -0.0375,0.0375 -0.11158,-0.1984 -0.16452,-0.52433 z"
         id="path370"
         transform="scale(0.26458333)" />
    </g>
    <path
       style="opacity:0.979167;fill:#fafafa;fill-rule:evenodd;stroke-width:0.182702;stroke-linecap:round;stroke-linejoin:round;stroke-miterlimit:0.7"
       d="M 296.34946,68.409706 C 279.36135,57.337229 270.70348,51.410975 270.70348,50.855203 c 0,-0.673707 36.13149,-17.543542 36.59076,-17.084269 0.36475,0.364748 1.39219,9.772014 2.77908,25.445453 0.67049,7.57728 1.33348,14.918904 1.4733,16.314719 0.13983,1.395814 0.0892,2.522888 -0.11254,2.504607 -0.20173,-0.01828 -6.98981,-4.349984 -15.08462,-9.626007 z"
       id="path1"
       transform="scale(0.26458333)" />
    <path
       style="opacity:0.979167;fill:#fafafa;fill-rule:evenodd;stroke-width:0.182702;stroke-linecap:round;stroke-linejoin:round;stroke-miterlimit:0.7"
       d="m 362.54931,98.758977 c -2.79163,-1.08728 -14.51099,-5.634398 -26.04302,-10.104703 -11.53203,-4.47031 -21.08234,-8.242838 -21.2229,-8.383398 -0.32129,-0.321296 -1.68454,-12.320567 -2.94122,-25.88848 -1.72555,-18.630342 -1.69109,-17.922395 -0.85685,-17.602268 0.40828,0.156672 3.86441,3.691833 7.68029,7.855915 8.94889,9.765469 44.13996,49.399821 49.10646,55.306716 1.08028,1.284831 0.089,1.079791 -5.72276,-1.183782 z"
       id="path2"
       transform="scale(0.26458333)" />
    <path
       style="opacity:0.979167;fill:#fafafa;fill-rule:evenodd;stroke-width:0.182702;stroke-linecap:round;stroke-linejoin:round;stroke-miterlimit:0.7"
       d="m 326.13519,98.250862 c -5.53349,-8.557362 -8.19869,-12.95197 -7.98474,-13.165913 0.28562,-0.285622 48.05195,17.745521 48.68397,18.377541 0.12464,0.12464 -8.19048,0.22661 -18.47804,0.22661 h -18.70464 z"
       id="path3"
       transform="scale(0.26458333)" />
    <path
       style="opacity:0.979167;fill:#fafafa;fill-rule:evenodd;stroke-width:0.182702;stroke-linecap:round;stroke-linejoin:round;stroke-miterlimit:0.7"
       d="M 261.39687,29.849893 C 258.03812,19.54745 255.14473,10.517908 254.96712,9.784243 l -0.32292,-1.3339356 4.0416,1.7220866 c 15.98975,6.813082 46.80041,20.325755 46.79613,20.523447 -0.007,0.301539 -36.89605,17.885766 -37.52212,17.885766 -0.25086,0 -3.20419,-8.429271 -6.56294,-18.731714 z"
       id="path4"
       transform="scale(0.26458333)" />
    <path
       style="opacity:0.979167;fill:#fafafa;fill-rule:evenodd;stroke-width:0.182702;stroke-linecap:round;stroke-linejoin:round;stroke-miterlimit:0.7"
       d="m 261.0355,47.61411 c -1.46228,-0.490144 -9.07123,-2.879335 -16.90877,-5.309313 -7.83754,-2.429978 -14.34798,-4.516043 -14.46763,-4.6357 -0.28548,-0.285481 0.33104,-1.116409 11.92716,-16.075009 5.4265,-6.999985 9.93528,-12.6557543 10.01952,-12.5683757 0.21665,0.224707 12.12981,36.6139047 12.51468,38.2265477 0.36693,1.53749 0.40803,1.532669 -3.08496,0.36185 z"
       id="path5"
       transform="scale(0.26458333)" />
    <path
       style="opacity:0.979167;fill:#fafafa;fill-rule:evenodd;stroke-width:0.182702;stroke-linecap:round;stroke-linejoin:round;stroke-miterlimit:0.7"
       d="M 225.75751,33.752203 C 223.1458,29.339148 213.13041,11.712587 210.99939,7.7786728 l -2.33275,-4.3063041 6.34956,0.3352086 c 8.91995,0.4709049 33.47661,2.5828651 33.80073,2.9069825 0.148,0.1480045 -0.67397,1.5256605 -1.82661,3.0614575 -3.2014,4.2656067 -18.87473,24.4597897 -19.54661,25.1846837 -0.48204,0.520073 -0.79665,0.294591 -1.6862,-1.208498 z"
       id="path6"
       transform="scale(0.26458333)" />
    <path
       style="opacity:0.979167;fill:#fafafa;fill-rule:evenodd;stroke-width:0.182702;stroke-linecap:round;stroke-linejoin:round;stroke-miterlimit:0.7"
       d="m 155.6545,41.217678 c 1.16233,-1.061191 48.87134,-37.1171288 49.24652,-37.2179 0.81488,-0.2188707 19.21054,32.412857 18.58964,32.975806 -0.42639,0.386586 -5.74494,0.76864 -36.65692,2.63322 -27.15657,1.638057 -31.45409,1.859813 -31.17924,1.608874 z"
       id="path7"
       transform="scale(0.26458333)" />
    <path
       style="opacity:0.979167;fill:#fafafa;fill-rule:evenodd;stroke-width:0.182702;stroke-linecap:round;stroke-linejoin:round;stroke-miterlimit:0.7"
       d="m 153.45068,37.342579 c 0.14134,-0.864076 0.91245,-6.574228 1.71358,-12.689226 2.27403,-17.3574968 2.32981,-17.632245 3.68395,-18.1470906 1.17654,-0.4473182 21.95864,-2.1104022 33.06122,-2.6457179 3.32337,-0.1602376 6.58632,-0.3881898 7.25099,-0.5065604 1.05549,-0.1879701 0.9464,0.00876 -0.86156,1.5538225 -4.9458,4.226614 -44.135,34.0058194 -44.75139,34.0058194 -0.19457,0 -0.23813,-0.706972 -0.0968,-1.571047 z"
       id="path8"
       transform="scale(0.26458333)" />
    <path
       style="opacity:0.979167;fill:#fafafa;fill-rule:evenodd;stroke-width:0.182702;stroke-linecap:round;stroke-linejoin:round;stroke-miterlimit:0.7"
       d="M 147.67842,40.358778 C 126.13077,30.930855 110.27091,23.67956 110.56318,23.3893 111.53457,22.424587 152.7857,7.4926857 154.47944,7.4926857 c 0.12083,0 0.10579,0.8157359 -0.0334,1.8127465 -0.1392,0.9970108 -0.80178,6.2721028 -1.47238,11.7224278 -0.6706,5.450324 -1.56545,12.139359 -1.98855,14.864521 -0.81053,5.220589 -0.99952,5.475862 -3.30667,4.466397 z"
       id="path9"
       transform="scale(0.26458333)" />
    <path
       style="opacity:0.979167;fill:#fafafa;fill-rule:evenodd;stroke-width:0.182702;stroke-linecap:round;stroke-linejoin:round;stroke-miterlimit:0.7"
       d="m 90.395627,79.745297 c 0,-0.788922 6.16936,-20.56185 12.390823,-39.712857 l 4.58326,-14.108257 1.78519,0.638193 c 4.49225,1.605948 37.80249,16.702036 37.78836,17.125552 -0.006,0.165763 -1.47386,1.269354 -3.26294,2.452424 -14.85349,9.822166 -51.41838,33.249462 -52.60712,33.705622 -0.372665,0.143004 -0.677573,0.0977 -0.677573,-0.100677 z"
       id="path23"
       transform="scale(0.26458333)" />
    <path
       style="opacity:0.979167;fill:#fafafa;fill-rule:evenodd;stroke-width:0.182702;stroke-linecap:round;stroke-linejoin:round;stroke-miterlimit:0.7"
       d="M 80.643451,75.085995 C 77.318482,71.542165 72.163284,65.969913 69.187454,62.703211 l -5.410601,-5.939458 1.34526,-1.102806 C 67.370662,53.817649 93.716228,33.979332 98.492562,30.532865 100.95185,28.758309 102.964,27.542141 102.964,27.83027 c 0,1.174241 -15.147656,51.684324 -15.9064,53.040123 -0.263721,0.471247 -2.090659,-1.176322 -6.414149,-5.784398 z"
       id="path24"
       transform="scale(0.26458333)" />
    <path
       style="opacity:0.979167;fill:#fafafa;fill-rule:evenodd;stroke-width:0.182702;stroke-linecap:round;stroke-linejoin:round;stroke-miterlimit:0.7"
       d="m 58.974687,120.81789 c 0,-6.52516 3.22487,-59.670116 3.6464,-60.091646 0.356378,-0.356378 4.575415,3.949204 14.388851,14.684012 l 8.396267,9.184582 -12.988227,19.456812 c -7.143524,10.70125 -13.090616,19.45681 -13.215758,19.45681 -0.125143,0 -0.227533,-1.21076 -0.227533,-2.69057 z"
       id="path25"
       transform="scale(0.26458333)" />
    <path
       style="opacity:0.979167;fill:#fafafa;fill-rule:evenodd;stroke-width:0.182702;stroke-linecap:round;stroke-linejoin:round;stroke-miterlimit:0.7"
       d="m 47.338467,120.44098 c -8.40445,-6.16417 -18.59922,-14.07334 -19.021975,-14.75737 -0.136547,-0.22094 1.1043,-2.34985 2.757438,-4.73091 3.491964,-5.029573 22.424041,-30.848116 25.971453,-35.418462 l 2.412703,-3.108431 -0.0044,1.899933 c -0.0038,1.654041 -1.053674,19.761778 -2.926776,50.48154 -0.299905,4.91859 -0.687578,9.52028 -0.861495,10.22599 -0.313139,1.27064 -0.394054,1.22601 -8.326939,-4.59229 z"
       id="path26"
       transform="scale(0.26458333)" />
    <path
       style="opacity:0.979167;fill:#fafafa;fill-rule:evenodd;stroke-width:0.182702;stroke-linecap:round;stroke-linejoin:round;stroke-miterlimit:0.7"
       d="m 38.014618,152.18091 c -6.958025,-28.19806 -10.043688,-41.28387 -9.862792,-41.82656 0.162213,-0.48664 6.429098,3.92516 15.112391,10.6389 8.387149,6.48478 11.359879,9.21964 11.359879,10.4509 0,1.8977 -10.62776,40.55833 -11.347211,41.27779 -0.08543,0.0854 -2.45345,-9.15804 -5.262267,-20.54103 z"
       id="path27"
       transform="scale(0.26458333)" />
    <path
       style="opacity:0.979167;fill:#fafafa;fill-rule:evenodd;stroke-width:0.182702;stroke-linecap:round;stroke-linejoin:round;stroke-miterlimit:0.7"
       d="m 38.188527,177.85946 c -0.398804,-0.0885 -8.066722,-1.30122 -17.039817,-2.69488 -8.973096,-1.39367 -16.3147192,-2.67476 -16.3147192,-2.84688 0,-0.17213 3.5671951,-10.9527 7.9271002,-23.95684 7.831338,-23.35827 12.34518,-36.16219 12.643355,-35.86401 0.136585,0.13658 16.167874,65.04984 16.167874,65.46631 0,0.19964 -2.340315,0.12792 -3.383793,-0.1037 z"
       id="path28"
       transform="scale(0.26458333)" />
    <path
       style="opacity:0.979167;fill:#fafafa;fill-rule:evenodd;stroke-width:0.182702;stroke-linecap:round;stroke-linejoin:round;stroke-miterlimit:0.7"
       d="m 8.7011834,236.83397 c 0,-0.1503 -0.3234989,-4.33774 -0.7188864,-9.30543 -1.2391566,-15.56888 -3.1483062,-44.99749 -3.1483062,-48.5296 v -3.3815 l 3.2629437,0.33851 c 1.7946191,0.18619 9.8975965,1.36014 18.0066155,2.6088 11.881228,1.82951 14.712914,2.40681 14.585247,2.97349 -0.259725,1.15286 -31.2266715,55.56901 -31.6230094,55.56901 -0.2005323,0 -0.3646042,-0.12298 -0.3646042,-0.27328 z"
       id="path29"
       transform="scale(0.26458333)" />
    <path
       style="opacity:0.979167;fill:#fafafa;fill-rule:evenodd;stroke-width:0.182702;stroke-linecap:round;stroke-linejoin:round;stroke-miterlimit:0.7"
       d="m 48.339908,257.91088 c -3.569664,-1.1308 -37.435151,-14.6945 -38.100178,-15.25977 -0.4060964,-0.34517 19.334346,-35.82216 28.290656,-50.84319 3.239494,-5.4331 3.818039,-6.00469 4.201831,-4.15133 0.590571,2.85191 7.541287,67.1999 7.541287,69.81535 0,0.98264 -0.126556,1.01137 -1.933596,0.43894 z"
       id="path30"
       transform="scale(0.26458333)" />
    <path
       style="opacity:0.979167;fill:#fafafa;fill-rule:evenodd;stroke-width:0.182702;stroke-linecap:round;stroke-linejoin:round;stroke-miterlimit:0.7"
       d="M 26.948787,289.92279 C 16.304802,261.87662 10.655908,246.59297 10.858901,246.38997 c 0.338607,-0.3386 38.495444,15.27285 39.325451,16.08958 0.183007,0.18008 -11.428096,39.84915 -14.541176,49.67959 -0.06388,0.20171 -3.976351,-9.80465 -8.694389,-22.23635 z"
       id="path31"
       transform="scale(0.26458333)" />
    <path
       style="opacity:0.979167;fill:#fafafa;fill-rule:evenodd;stroke-width:0.182702;stroke-linecap:round;stroke-linejoin:round;stroke-miterlimit:0.7"
       d="m 50.394354,316.0225 c -6.979075,-0.0755 -12.689226,-0.3257 -12.689226,-0.55602 0,-0.70692 14.450172,-49.41959 14.761147,-49.76098 0.210966,-0.23161 7.24004,10.33978 17.94782,26.99264 11.900925,18.50846 14.670746,23.03542 14.31306,23.3931 -0.161398,0.1614 -5.097228,0.24284 -10.968513,0.18099 -5.871284,-0.0619 -16.385214,-0.17424 -23.364288,-0.24973 z"
       id="path32"
       transform="scale(0.26458333)" />
    <path
       style="opacity:0.979167;fill:#fafafa;fill-rule:evenodd;stroke-width:0.182702;stroke-linecap:round;stroke-linejoin:round;stroke-miterlimit:0.7"
       d="m 74.545978,353.66036 c -5.269809,-4.8992 -32.023189,-31.75935 -34.182155,-34.31857 l -0.966798,-1.14603 19.577662,0.31344 c 10.767715,0.1724 21.397233,0.4453 23.621153,0.60646 l 4.04349,0.29302 -0.327234,2.95945 c -0.381592,3.45104 -4.488569,32.66879 -4.917598,34.98464 -0.160077,0.86407 -0.492618,1.57104 -0.73898,1.57104 -0.246361,0 -2.995654,-2.36855 -6.10954,-5.26345 z"
       id="path33"
       transform="scale(0.26458333)" />
    <path
       style="opacity:0.979167;fill:#fafafa;fill-rule:evenodd;stroke-width:0.182702;stroke-linecap:round;stroke-linejoin:round;stroke-miterlimit:0.7"
       d="m 84.111439,357.21912 c 0,-0.0833 0.428792,-3.15988 0.952872,-6.8369 0.52408,-3.67701 1.617035,-11.47113 2.42879,-17.32026 0.811755,-5.84913 1.575468,-10.9143 1.697139,-11.25593 0.17454,-0.49008 0.528451,-0.46228 1.677196,0.13176 1.600336,0.82757 23.281814,17.05059 26.324934,19.69746 l 1.90169,1.65407 -5.28548,2.22747 c -7.02016,2.95853 -29.697141,11.89452 -29.697141,11.70233 z"
       id="path34"
       transform="scale(0.26458333)" />
    <path
       style="opacity:0.979167;fill:#fafafa;fill-rule:evenodd;stroke-width:0.182702;stroke-linecap:round;stroke-linejoin:round;stroke-miterlimit:0.7"
       d="m 152.63584,392.96246 c -5.36268,-2.25025 -45.1834,-19.95308 -54.747527,-24.33874 -10.25179,-4.70099 -13.776874,-6.56404 -13.776874,-7.28127 0,-0.24255 1.603483,-1.20191 3.563296,-2.13193 3.946124,-1.87259 30.779345,-12.59936 32.762955,-13.09721 1.51003,-0.379 1.94491,0.1178 10.57919,12.0854 13.22583,18.33178 25.42333,36.04439 24.77094,35.97112 -0.20626,-0.0232 -1.62465,-0.56648 -3.15198,-1.20737 z"
       id="path35"
       transform="scale(0.26458333)" />
    <path
       style="opacity:0.979167;fill:#fafafa;fill-rule:evenodd;stroke-width:0.182702;stroke-linecap:round;stroke-linejoin:round;stroke-miterlimit:0.7"
       d="m 151.91936,382.97292 c -14.63233,-20.90747 -23.78216,-34.43132 -23.39142,-34.57353 0.58085,-0.2114 80.18005,33.98552 109.5461,47.06252 1.22518,0.54559 -4.63112,0.64873 -37.74274,0.66471 l -39.19293,0.0189 z"
       id="path36"
       transform="scale(0.26458333)" />
    <path
       style="opacity:0.979167;fill:#fafafa;fill-rule:evenodd;stroke-width:0.182702;stroke-linecap:round;stroke-linejoin:round;stroke-miterlimit:0.7"
       d="m 228.64776,388.22081 c -14.38908,-6.16516 -34.87931,-15.13511 -44.84621,-19.6322 -1.93358,-0.87244 -3.44746,-1.65438 -3.36418,-1.73766 0.20346,-0.20346 32.57418,-5.60012 60.29537,-10.05211 27.29482,-4.38352 27.07035,-4.35094 27.07035,-3.92906 0,0.36996 -4.40493,8.87475 -14.15186,27.32359 -6.82443,12.91718 -7.99925,14.99032 -8.48647,14.97563 -0.17772,-0.005 -7.61037,-3.13204 -16.517,-6.94819 z"
       id="path37"
       transform="scale(0.26458333)" />
    <path
       style="opacity:0.979167;fill:#fafafa;fill-rule:evenodd;stroke-width:0.182702;stroke-linecap:round;stroke-linejoin:round;stroke-miterlimit:0.7"
       d="m 254.97516,383.93972 c 2.78284,-5.38386 7.52517,-14.46572 10.53851,-20.18192 l 5.47879,-10.39308 2.15166,0.0706 c 2.04437,0.067 26.53824,4.53724 34.90612,6.37048 l 3.93201,0.86143 -5.29146,2.93076 c -7.44937,4.12593 -56.318,30.13061 -56.6222,30.13061 -0.0842,0 2.12372,-4.40498 4.90657,-9.78883 z"
       id="path38"
       transform="scale(0.26458333)" />
    <path
       style="opacity:0.979167;fill:#fafafa;fill-rule:evenodd;stroke-width:0.182702;stroke-linecap:round;stroke-linejoin:round;stroke-miterlimit:0.7"
       d="m 311.7924,357.62318 c -6.60026,-1.10421 -36.48921,-6.80426 -37.57773,-7.16636 -0.77203,-0.25681 2.66716,-3.47175 23.55916,-22.02295 19.88214,-17.65448 31.13069,-27.48593 31.27856,-27.33806 0.15222,0.15222 -9.17919,42.05349 -10.91323,49.00421 -0.81227,3.25593 -1.71012,6.35573 -1.99522,6.88844 -0.51355,0.95956 -1.52657,1.10732 -4.35154,0.63472 z"
       id="path39"
       transform="scale(0.26458333)" />
    <path
       style="opacity:0.979167;fill:#fafafa;fill-rule:evenodd;stroke-width:0.182702;stroke-linecap:round;stroke-linejoin:round;stroke-miterlimit:0.7"
       d="m 320.49359,353.849 c 0,-1.64876 11.3909,-52.12426 12.02314,-53.27708 0.28903,-0.52704 12.31166,8.97821 21.58705,17.06701 l 2.824,2.46273 -2.38578,2.55247 c -2.29817,2.45874 -28.52557,27.23148 -32.23567,30.44777 -1.41629,1.22779 -1.81274,1.39118 -1.81274,0.7471 z"
       id="path40"
       transform="scale(0.26458333)" />
    <path
       style="opacity:0.979167;fill:#fafafa;fill-rule:evenodd;stroke-width:0.182702;stroke-linecap:round;stroke-linejoin:round;stroke-miterlimit:0.7"
       d="m 333.19186,293.54409 c 5.75737,-14.90932 19.50576,-48.21906 19.90211,-48.21906 0.60248,0 29.00156,18.93144 30.36068,20.23908 0.7962,0.76604 0.35566,1.08382 -7.73438,5.57931 -13.48486,7.49328 -42.10896,23.00492 -42.45168,23.00492 -0.17054,0 -0.20506,-0.27191 -0.0767,-0.60425 z"
       id="path41"
       transform="scale(0.26458333)" />
    <path
       style="opacity:0.979167;fill:#fafafa;fill-rule:evenodd;stroke-width:0.182702;stroke-linecap:round;stroke-linejoin:round;stroke-miterlimit:0.7"
       d="m 350.67079,311.00188 c -8.98651,-7.43875 -15.67523,-13.39432 -15.67523,-13.95707 0,-0.57078 47.88957,-26.6702 48.27712,-26.31064 0.39264,0.3643 -23.74234,46.25402 -24.45078,46.49016 -0.24858,0.0829 -3.91658,-2.71724 -8.15111,-6.22245 z"
       id="path42"
       transform="scale(0.26458333)" />
    <path
       style="opacity:0.979167;fill:#fafafa;fill-rule:evenodd;stroke-width:0.182702;stroke-linecap:round;stroke-linejoin:round;stroke-miterlimit:0.7"
       d="m 333.64999,293.14292 c 11.07269,-28.03051 19.3023,-47.41069 20.01616,-47.13676 0.73133,0.28064 26.82274,17.6603 28.70252,19.11893 1.6954,1.31557 3.51353,0.15847 -23.01233,14.64556 -22.99524,12.55884 -26.00311,14.12351 -25.70635,13.37227 z"
       id="path43"
       transform="scale(0.26458333)" />
    <path
       style="opacity:0.979167;fill:#fafafa;fill-rule:evenodd;stroke-width:0.182702;stroke-linecap:round;stroke-linejoin:round;stroke-miterlimit:0.7"
       d="m 379.95167,259.38445 c -3.32337,-2.10195 -10.46492,-6.74518 -15.87013,-10.31827 l -9.82764,-6.49653 3.06005,-2.40462 c 17.64595,-13.86632 35.41123,-26.89345 35.58773,-26.09617 0.15889,0.71771 -2.03362,18.38205 -4.50954,36.33186 -0.91681,6.64674 -1.66828,12.24813 -1.66991,12.44753 -0.006,0.71674 -0.81635,0.3021 -6.77056,-3.4638 z"
       id="path44"
       transform="scale(0.26458333)" />
    <path
       style="opacity:0.979167;fill:#fafafa;fill-rule:evenodd;stroke-width:0.182702;stroke-linecap:round;stroke-linejoin:round;stroke-miterlimit:0.7"
       d="m 350.49123,237.56704 c -2.13533,-2.70139 -12.27763,-17.72964 -15.26003,-22.61139 -1.41463,-2.31555 -1.71672,-3.15071 -1.24509,-3.44219 0.84665,-0.52327 47.68439,-1.18637 52.42436,-0.7422 3.6344,0.34057 3.74963,0.38862 2.89293,1.20637 -0.89177,0.85121 -35.17909,27.03552 -36.27852,27.70492 -0.36583,0.22274 -1.30566,-0.56198 -2.53365,-2.11551 z"
       id="path45"
       transform="scale(0.26458333)" />
    <path
       style="opacity:0.979167;fill:#fafafa;fill-rule:evenodd;stroke-width:0.182702;stroke-linecap:round;stroke-linejoin:round;stroke-miterlimit:0.7"
       d="m 288.19102,240.93874 c -16.30412,-0.19686 -29.72901,-0.44306 -29.83307,-0.54712 -0.13903,-0.13903 64.90152,-26.3598 69.90726,-28.18277 0.55599,-0.20248 1.80966,1.19973 4.63149,5.18025 5.32332,7.50915 16.11743,23.43829 16.11743,23.7849 0,0.33535 -19.95608,0.25816 -60.82311,-0.23526 z"
       id="path46"
       transform="scale(0.26458333)" />
    <path
       style="opacity:0.979167;fill:#fafafa;fill-rule:evenodd;stroke-width:0.182702;stroke-linecap:round;stroke-linejoin:round;stroke-miterlimit:0.7"
       d="m 240.00764,236.42152 c -11.57382,-4.03191 -43.2676,-15.41592 -61.87508,-22.22476 l -12.56838,-4.59901 12.08498,-0.0116 c 11.44594,-0.011 58.29088,0.4804 116.86173,1.22577 14.55635,0.18524 26.4661,0.474 26.4661,0.64169 0,0.16769 -0.59821,0.5422 -1.32935,0.83225 -0.73114,0.29005 -8.07277,3.29649 -16.31472,6.68098 -19.56303,8.03338 -52.72086,21.15526 -53.1053,21.01589 -0.0377,-0.0137 -4.63672,-1.61624 -10.21998,-3.56125 z"
       id="path47"
       transform="scale(0.26458333)" />
    <path
       style="opacity:0.979167;fill:#fafafa;fill-rule:evenodd;stroke-width:0.182702;stroke-linecap:round;stroke-linejoin:round;stroke-miterlimit:0.7"
       d="m 158.07311,233.6026 c 0.002,-9.30678 0.55007,-21.92723 0.98229,-22.62657 0.37243,-0.60262 -0.35254,-0.85328 50.7398,17.54356 14.75576,5.31311 27.75315,9.98315 28.88309,10.37787 1.12995,0.39471 2.05445,0.91474 2.05445,1.15562 0,0.25827 -16.95799,0.43796 -41.33062,0.43796 H 158.0715 Z"
       id="path48"
       transform="scale(0.26458333)" />
  </g>
</svg>
