<?xml version="1.0" encoding="UTF-8" standalone="no"?>
<!-- Created with Inkscape (http://www.inkscape.org/) -->

<svg
   width="297mm"
   height="210mm"
   viewBox="0 0 297 210"
   version="1.1"
   id="svg1"
   xmlns="http://www.w3.org/2000/svg"
   xmlns:svg="http://www.w3.org/2000/svg">
  <defs
     id="defs1">
    <linearGradient
       id="swatch56">
      <stop
         style="stop-color:#000000;stop-opacity:1;"
         offset="0"
         id="stop56" />
    </linearGradient>
    <clipPath
       clipPathUnits="userSpaceOnUse"
       id="clipPath346-3">
      <path
         id="path347-5"
         style="fill:#ff0000;fill-opacity:1;fill-rule:nonzero;stroke:none;stroke-width:0.264583"
         d="m 132.41466,60.923929 v 4.491199 h 6.91792 v -3.640603 c -0.0172,-1.24e-4 -0.0312,2.65e-4 -0.0522,5.29e-4 -0.0255,-0.0032 -0.051,-0.0055 -0.0765,-0.0093 -0.004,-5.29e-4 -0.10986,-0.01958 -0.11886,-0.02066 -0.0905,-0.01077 -0.18045,-0.0024 -0.26975,0.01497 -0.1083,0.01942 -0.20985,0.04003 -0.31988,0.05013 -0.23336,0.02143 -0.46612,-5.29e-4 -0.69039,-0.06976 -0.13616,-0.03563 -0.27215,-0.07265 -0.41342,-0.08165 -0.17896,-0.01146 -0.35718,0.01371 -0.53381,0.03876 -0.16025,0.01995 -0.2886,0.04071 -0.45114,0.04134 -0.0772,2.64e-4 -0.15481,-0.0038 -0.23151,-0.01241 -0.20149,-0.02252 -0.39367,-0.08625 -0.58859,-0.137978 -0.10601,-0.02479 -0.17694,-0.04394 -0.26614,-0.05736 -0.007,0.0035 -0.0133,0.0074 -0.0207,0.0093 -0.0274,0.0072 -0.0473,0.0048 -0.0729,-0.0052 -0.002,0.0053 -0.004,0.01066 -0.006,0.01603 -0.0102,0.02752 -0.0195,0.05527 -0.03,0.08268 -0.003,0.0059 -0.002,0.01201 -0.0103,0.0093 -0.004,-0.0016 -0.009,-0.0035 -0.0129,-0.0052 -0.0157,-0.0021 -0.0176,-0.0026 -0.0119,-0.01757 0.001,-0.0038 0.003,-0.0076 0.004,-0.01138 -0.005,-0.0052 -0.008,-0.01458 -0.006,-0.0279 0.004,-0.02262 0.0117,-0.04378 0.0207,-0.0646 -0.0642,-0.0036 -0.1282,-0.0027 -0.19223,-5.29e-4 -1.2e-4,-8e-6 -5.3e-4,1.3e-5 -5.3e-4,0 -1.7e-4,8e-6 -2.6e-4,-5e-6 -5.3e-4,0 -0.0338,0.0011 -0.0675,0.0016 -0.10128,0.0036 -0.0111,0.01005 -0.0238,0.01717 -0.0382,0.02119 -0.0601,0.04328 -0.1238,0.07734 -0.19327,0.08268 -8e-5,0.0024 -7.9e-4,0.0045 -5.3e-4,0.0067 h -0.002 c 0.001,0.0141 -0.005,0.01982 -0.0119,0.0072 -0.002,-0.004 -0.003,-0.0083 -0.004,-0.01241 -0.001,2e-6 -0.002,1.3e-5 -0.003,0 -0.0479,-5.29e-4 -0.0909,-0.01881 -0.12919,-0.04599 -0.0253,2.65e-4 -0.0507,-0.0013 -0.0754,-0.0078 -0.0161,-0.0042 -0.03,-0.01193 -0.0434,-0.02066 -0.028,7.94e-4 -0.0557,0.0019 -0.0837,0.0016 -0.18589,-0.01283 -0.2164,-0.01021 -0.34055,-0.03617 -0.014,9e-5 -0.021,-5.3e-4 -0.0377,0 -0.0111,-0.0066 -0.0135,-0.0073 -0.0233,-0.01291 -0.007,-0.0016 -0.0104,-0.0024 -0.0181,-0.0041 -0.0392,-0.009 -0.21305,-0.05975 -0.26354,-0.0739 -0.0112,-0.0031 -0.0219,-0.007 -0.0331,-0.01035 -5.3e-4,-1.56e-4 -10e-4,-2.64e-4 -0.002,-5.29e-4 -0.008,-5.29e-4 -0.0145,-0.0021 -0.0217,-0.0031 -0.078,0.05864 -0.14786,0.08554 -0.2496,0.09302 -0.005,0.0034 -0.01,0.007 -0.015,0.01035 -0.0165,0.01058 -0.0322,0.02212 -0.0496,0.03101 -0.11177,0.05686 -0.12485,0.04832 -0.23978,0.05323 -0.0953,0.05599 -0.20586,0.01206 -0.47594,-0.141076 -0.0645,-0.03658 -0.0194,-0.147097 -0.0284,-0.220657 0.007,-0.03009 0.004,-0.01458 0.006,-0.02532 -0.004,-0.0079 -0.006,-0.01328 -0.01,-0.0217 -0.0204,-0.04672 0.002,-0.102235 0.0109,-0.152445 0.007,-0.0398 0.0233,-0.07758 0.0434,-0.113689 z m 3.29282,0 c 0.002,0.0048 0.003,0.0097 0.005,0.01447 0.009,0.0019 0.0125,0.0026 0.0217,0.0047 0.004,0.0011 0.008,0.0021 0.0119,0.0031 0.001,-0.0026 0.002,-0.0055 0.004,-0.0078 0.003,-0.0044 0.006,-0.0096 0.009,-0.01447 z m 0.20257,0 c 0.006,0.0065 0.0124,0.0132 0.0176,0.02066 0.002,0.0035 0.005,0.01016 0.008,0.01757 0.007,-0.01402 0.0169,-0.02678 0.0279,-0.03824 z m -3.32228,0.160716 c -0.006,0.003 -0.0112,0.01 -0.015,0.0186 5.3e-4,7.94e-4 0.001,0.0013 0.002,0.0021 0.001,-0.0016 0.001,-0.0021 0.002,-0.0031 0.009,-0.01386 0.007,-0.01013 0.0114,-0.01757 z m -0.0584,0.01757 c -0.002,0.0096 -0.01,0.02027 -0.006,0.02894 0.002,-0.0065 5.3e-4,-0.0019 0.004,-0.01344 0.001,-0.0052 0.004,-0.0208 0.003,-0.0155 z m 6.8032,0.0093 c -0.003,5.29e-4 -0.005,0.0011 -0.007,0.0016 0.002,2.65e-4 0.005,5.3e-4 0.007,0.0011 z m -6.12469,0.38499 c -0.003,-2.65e-4 0.006,0.0024 0.009,0.0026 0.003,2.14e-4 0.007,2.64e-4 0.01,5.29e-4 -0.006,-0.0011 -0.0128,-0.0024 -0.0191,-0.0031 z" />
    </clipPath>
    <clipPath
       clipPathUnits="userSpaceOnUse"
       id="clipPath365">
      <path
         id="path366"
         style="fill:#ff0000;fill-opacity:1;fill-rule:nonzero;stroke:none;stroke-width:0.264583"
         d="m 92.08145,56.997011 -2.633724,37.776792 1.20527,0.08403 c 0.05216,-0.353299 0.101574,-0.707102 0.158318,-1.059707 2.56e-4,-0.0016 4.79e-4,-0.0031 8.52e-4,-0.0046 -0.0868,-0.03654 -0.158199,-0.06612 -0.256178,-0.10748 -0.03537,-0.01493 0.08437,-0.717548 0.08689,-0.733672 0.07288,-0.447781 0.165615,-0.891772 0.255819,-1.336266 l 0.11134,0.02277 c 0.02046,-0.06411 0.05218,-0.111067 0.113838,-0.109654 0.06642,0.0015 0.132577,0.006 0.198583,0.01225 0.02675,-0.08537 0.01835,-0.236601 0.100166,-0.225609 0.0053,6.34e-4 0.0098,0.0015 0.01487,0.0021 0.0053,-0.02931 0.0109,-0.05863 0.01597,-0.08799 -0.201608,-0.284869 -0.288431,-0.557042 -0.182231,-0.81149 l -0.01284,-0.0014 c 0.03116,-0.220911 0.0083,-0.100032 0.07538,-0.360466 0.03774,-0.08139 0.06451,-0.169135 0.113389,-0.24437 0.08916,-0.137226 0.206596,-0.263542 0.344078,-0.35831 0.02038,-0.123347 0.03663,-0.248869 0.0834,-0.364051 0.03058,-0.07529 0.07031,-0.146255 0.105443,-0.219541 l 0.737899,0.449803 2.239528,-32.122647 z m -0.682084,33.099426 c -0.01062,0.02984 -0.0168,0.06068 -0.02091,0.09179 0.0071,-0.03045 0.01318,-0.0582 0.02091,-0.09179 z m -0.03933,0.623543 c -0.0044,0.02123 -0.0081,0.04296 -0.01127,0.065 0.0057,-0.01912 0.01053,-0.03775 0.01246,-0.05249 3.29e-4,-0.0026 3.21e-4,-0.0078 2.98e-4,-0.01189 z m -0.02025,0.18663 c 6.61e-4,0.0978 0.02224,0.195415 0.08375,0.277282 0.0095,0.01265 0.02136,0.02305 0.03176,0.03485 0.01269,-0.07354 0.02556,-0.14706 0.03816,-0.220603 -7e-4,-0.0014 -0.0011,-0.0029 -0.0018,-0.0043 -0.04933,-0.02872 -0.09851,-0.05718 -0.151911,-0.08726 z m 0.05162,0.522653 c -0.009,0.0138 -0.03317,0.06301 -0.02136,0.07621 0.0067,-0.02544 0.01388,-0.05106 0.02341,-0.07555 0.0023,-0.0059 9e-4,-0.0053 -0.0021,-6.76e-4 z m -0.770307,1.924608 c -0.02809,0.01579 -0.02413,0.136461 -0.02014,0.103236 0.0043,-0.03476 0.01156,-0.0692 0.02014,-0.103236 z" />
    </clipPath>
    <clipPath
       clipPathUnits="userSpaceOnUse"
       id="clipPath365-5">
      <path
         id="path366-7"
         style="fill:#ff0000;fill-opacity:1;fill-rule:nonzero;stroke:none;stroke-width:0.264583"
         d="m 92.08145,56.997011 -2.633724,37.776792 1.20527,0.08403 c 0.05216,-0.353299 0.101574,-0.707102 0.158318,-1.059707 2.56e-4,-0.0016 4.79e-4,-0.0031 8.52e-4,-0.0046 -0.0868,-0.03654 -0.158199,-0.06612 -0.256178,-0.10748 -0.03537,-0.01493 0.08437,-0.717548 0.08689,-0.733672 0.07288,-0.447781 0.165615,-0.891772 0.255819,-1.336266 l 0.11134,0.02277 c 0.02046,-0.06411 0.05218,-0.111067 0.113838,-0.109654 0.06642,0.0015 0.132577,0.006 0.198583,0.01225 0.02675,-0.08537 0.01835,-0.236601 0.100166,-0.225609 0.0053,6.34e-4 0.0098,0.0015 0.01487,0.0021 0.0053,-0.02931 0.0109,-0.05863 0.01597,-0.08799 -0.201608,-0.284869 -0.288431,-0.557042 -0.182231,-0.81149 l -0.01284,-0.0014 c 0.03116,-0.220911 0.0083,-0.100032 0.07538,-0.360466 0.03774,-0.08139 0.06451,-0.169135 0.113389,-0.24437 0.08916,-0.137226 0.206596,-0.263542 0.344078,-0.35831 0.02038,-0.123347 0.03663,-0.248869 0.0834,-0.364051 0.03058,-0.07529 0.07031,-0.146255 0.105443,-0.219541 l 0.737899,0.449803 2.239528,-32.122647 z m -0.682084,33.099426 c -0.01062,0.02984 -0.0168,0.06068 -0.02091,0.09179 0.0071,-0.03045 0.01318,-0.0582 0.02091,-0.09179 z m -0.03933,0.623543 c -0.0044,0.02123 -0.0081,0.04296 -0.01127,0.065 0.0057,-0.01912 0.01053,-0.03775 0.01246,-0.05249 3.29e-4,-0.0026 3.21e-4,-0.0078 2.98e-4,-0.01189 z m -0.02025,0.18663 c 6.61e-4,0.0978 0.02224,0.195415 0.08375,0.277282 0.0095,0.01265 0.02136,0.02305 0.03176,0.03485 0.01269,-0.07354 0.02556,-0.14706 0.03816,-0.220603 -7e-4,-0.0014 -0.0011,-0.0029 -0.0018,-0.0043 -0.04933,-0.02872 -0.09851,-0.05718 -0.151911,-0.08726 z m 0.05162,0.522653 c -0.009,0.0138 -0.03317,0.06301 -0.02136,0.07621 0.0067,-0.02544 0.01388,-0.05106 0.02341,-0.07555 0.0023,-0.0059 9e-4,-0.0053 -0.0021,-6.76e-4 z m -0.770307,1.924608 c -0.02809,0.01579 -0.02413,0.136461 -0.02014,0.103236 0.0043,-0.03476 0.01156,-0.0692 0.02014,-0.103236 z" />
    </clipPath>
    <clipPath
       clipPathUnits="userSpaceOnUse"
       id="clipPath365-5-2">
      <path
         id="path366-7-4"
         style="fill:#ff0000;fill-opacity:1;fill-rule:nonzero;stroke:none;stroke-width:0.264583"
         d="m 92.08145,56.997011 -2.633724,37.776792 1.20527,0.08403 c 0.05216,-0.353299 0.101574,-0.707102 0.158318,-1.059707 2.56e-4,-0.0016 4.79e-4,-0.0031 8.52e-4,-0.0046 -0.0868,-0.03654 -0.158199,-0.06612 -0.256178,-0.10748 -0.03537,-0.01493 0.08437,-0.717548 0.08689,-0.733672 0.07288,-0.447781 0.165615,-0.891772 0.255819,-1.336266 l 0.11134,0.02277 c 0.02046,-0.06411 0.05218,-0.111067 0.113838,-0.109654 0.06642,0.0015 0.132577,0.006 0.198583,0.01225 0.02675,-0.08537 0.01835,-0.236601 0.100166,-0.225609 0.0053,6.34e-4 0.0098,0.0015 0.01487,0.0021 0.0053,-0.02931 0.0109,-0.05863 0.01597,-0.08799 -0.201608,-0.284869 -0.288431,-0.557042 -0.182231,-0.81149 l -0.01284,-0.0014 c 0.03116,-0.220911 0.0083,-0.100032 0.07538,-0.360466 0.03774,-0.08139 0.06451,-0.169135 0.113389,-0.24437 0.08916,-0.137226 0.206596,-0.263542 0.344078,-0.35831 0.02038,-0.123347 0.03663,-0.248869 0.0834,-0.364051 0.03058,-0.07529 0.07031,-0.146255 0.105443,-0.219541 l 0.737899,0.449803 2.239528,-32.122647 z m -0.682084,33.099426 c -0.01062,0.02984 -0.0168,0.06068 -0.02091,0.09179 0.0071,-0.03045 0.01318,-0.0582 0.02091,-0.09179 z m -0.03933,0.623543 c -0.0044,0.02123 -0.0081,0.04296 -0.01127,0.065 0.0057,-0.01912 0.01053,-0.03775 0.01246,-0.05249 3.29e-4,-0.0026 3.21e-4,-0.0078 2.98e-4,-0.01189 z m -0.02025,0.18663 c 6.61e-4,0.0978 0.02224,0.195415 0.08375,0.277282 0.0095,0.01265 0.02136,0.02305 0.03176,0.03485 0.01269,-0.07354 0.02556,-0.14706 0.03816,-0.220603 -7e-4,-0.0014 -0.0011,-0.0029 -0.0018,-0.0043 -0.04933,-0.02872 -0.09851,-0.05718 -0.151911,-0.08726 z m 0.05162,0.522653 c -0.009,0.0138 -0.03317,0.06301 -0.02136,0.07621 0.0067,-0.02544 0.01388,-0.05106 0.02341,-0.07555 0.0023,-0.0059 9e-4,-0.0053 -0.0021,-6.76e-4 z m -0.770307,1.924608 c -0.02809,0.01579 -0.02413,0.136461 -0.02014,0.103236 0.0043,-0.03476 0.01156,-0.0692 0.02014,-0.103236 z" />
    </clipPath>
    <clipPath
       clipPathUnits="userSpaceOnUse"
       id="clipPath377">
      <path
         id="path378"
         style="fill:#ff0000;fill-opacity:1;fill-rule:nonzero;stroke:none;stroke-width:0.264583"
         d="M 30.532504,54.763067 V 83.378889 H 134.93802 c -0.004,-0.005 -0.007,-0.0099 -0.0103,-0.01498 l 1.10071,-0.733806 c 0.0372,0.05469 0.0772,0.119978 0.11626,0.189137 l 0.0879,-0.06098 c 0.0496,0.07194 0.0968,0.14588 0.12815,0.227893 0.0435,0.121822 0.0809,0.246169 0.0889,0.376203 l -0.10282,0.01447 c 1.3e-4,7.94e-4 2.6e-4,0.0013 5.2e-4,0.0021 h 46.42972 V 54.763067 Z m 104.939326,5.809464 h 5.3e-4 5.3e-4 5.3e-4 5.3e-4 5.2e-4 5.3e-4 c 0.0127,-5.29e-4 0.0242,0.0075 0.0315,0.02376 0.006,0.0145 0.007,0.03386 0.009,0.04909 0.002,0.05817 -0.007,0.11616 -0.0181,0.173633 0.0379,-0.01662 0.0734,-0.0473 0.11368,-0.04909 0.003,-1.24e-4 0.006,-1.69e-4 0.009,0 0.0397,0.0024 0.0615,0.07306 0.0724,0.10387 0.0116,0.03294 0.022,0.06638 0.0326,0.09974 0.004,-5.29e-4 0.008,-7.94e-4 0.0124,-0.0011 0.003,-0.01265 0.007,-0.02487 0.014,-0.03411 0.009,-0.01275 0.0164,-0.03032 0.0315,-0.03462 0.0337,-0.0095 0.0699,-0.0024 0.1049,-0.0036 0.0138,0.01479 0.0298,0.02783 0.0413,0.04444 0.002,0.0035 0.005,0.01016 0.008,0.01757 0.01,-0.01929 0.0235,-0.03637 0.0403,-0.05064 0.0142,-0.01037 0.0263,-0.02066 0.0434,-0.02635 0.0129,-0.0044 0.0262,-0.0084 0.0398,-0.0088 0.0329,-0.0011 0.0546,0.008 0.0801,0.02739 0.003,0.0021 0.005,0.0043 0.007,0.0067 0.0324,-0.02862 0.0667,-0.05853 0.10542,-0.07183 0.01,-0.0034 0.0209,-0.0052 0.031,-0.0078 0.009,-0.0013 0.0179,-0.0029 0.0279,-0.0036 0.003,-2.25e-4 0.006,-5.29e-4 0.009,-5.29e-4 h 0.001 c 0.0228,-1.19e-4 0.0451,0.0043 0.0651,0.01603 h 5.3e-4 c 0.0134,0.0079 -0.008,0.0053 -0.008,0.01344 0.0108,-0.0036 0.0225,-0.0065 0.0357,-0.0078 0.009,-7.94e-4 0.0189,-0.0016 0.0279,-0.0026 0.0105,7.94e-4 0.021,0.0011 0.0315,0.0026 0.005,7.94e-4 0.01,0.0021 0.015,0.0036 0.0202,0.0057 0.0393,0.01474 0.0568,0.02585 0.0294,0.0196 0.0564,0.04231 0.0734,0.0739 0.0163,0.03231 0.0281,0.06633 0.0331,0.102319 0.002,0.01693 0.003,0.02291 0.004,0.04031 0.001,0.02191 -5.3e-4,0.04384 -0.003,0.06563 -0.004,0.03831 -0.009,0.07609 -0.0155,0.114205 -0.008,0.0527 -0.015,0.101158 -0.0522,0.142626 -0.005,0.0047 -0.01,0.0096 -0.015,0.01394 -0.0267,0.02196 -0.0602,0.03287 -0.0946,0.03359 -0.006,-2.64e-4 -0.0126,8e-6 -0.0186,-0.0011 -0.019,-0.0024 -0.0371,-0.0087 -0.0543,-0.01654 -0.0206,-0.0029 -0.0415,-0.0074 -0.061,-0.01498 -0.002,-7.94e-4 -0.003,-0.0019 -0.005,-0.0026 -0.005,0.0088 -0.0107,0.01667 -0.0176,0.02429 -0.007,0.0075 -0.0142,0.01344 -0.0222,0.02016 -0.0101,0.0052 -0.02,0.0113 -0.0305,0.01551 -0.0303,0.01206 -0.0663,0.0077 -0.0971,0.0011 -0.0153,-0.0042 -0.0306,-0.0079 -0.0455,-0.01344 -0.0234,0.02196 -0.0517,0.03792 -0.0832,0.04599 -0.0403,0.0086 -0.0814,0.01254 -0.12247,0.0078 -0.0419,-0.0072 -0.0759,-0.01752 -0.10904,-0.04547 -0.005,-0.0046 -0.01,-0.009 -0.015,-0.01394 -0.0109,-0.01111 -0.0207,-0.0236 -0.0289,-0.03669 -0.024,-0.0031 -0.0477,-0.0047 -0.0718,-0.0072 -0.0155,0.0085 -0.027,0.02297 -0.0434,0.02894 -0.005,0.0076 -0.007,0.01005 -0.0191,0.02842 -0.0146,0.02122 -0.0347,0.06177 -0.0682,0.06201 -0.0183,1.3e-4 -0.0105,-0.0222 -0.008,-0.03721 -0.0192,0.0149 -0.0423,0.01969 -0.0636,0.01447 h -5.3e-4 c -0.0116,0.0053 -0.0216,0.01418 -0.0403,0.01704 -0.038,0.0059 -0.0758,-0.0079 -0.11162,-0.02222 -0.003,0.0024 -0.006,0.0052 -0.009,0.0078 -0.0103,0.0047 -0.0196,0.01111 -0.0305,0.01394 -0.026,0.0068 -0.0454,0.0051 -0.0692,-0.0036 -0.002,0.005 -0.004,0.0099 -0.006,0.01497 -0.0102,0.02752 -0.0195,0.05527 -0.03,0.08268 -0.003,0.0059 -0.002,0.01201 -0.0103,0.0093 -0.004,-0.0016 -0.008,-0.0035 -0.0124,-0.0052 -0.0157,-0.0021 -0.0181,-0.0026 -0.0124,-0.01757 0.002,-0.0042 0.003,-0.0083 0.005,-0.01241 -0.005,-0.0053 -0.007,-0.01426 -0.005,-0.02687 0.005,-0.02582 0.0197,-0.0477 0.0305,-0.07131 -0.006,-0.0061 -0.012,-0.01262 -0.0176,-0.01913 -0.0168,-0.02058 -0.0334,-0.04206 -0.0491,-0.06356 -0.0139,-0.0191 -0.0271,-0.03828 -0.0403,-0.05788 -0.008,0.0199 -0.0172,0.03953 -0.0269,0.05891 -0.004,0.0073 -0.0152,0.02847 -0.0202,0.03617 -0.005,0.0068 -0.01,0.01315 -0.015,0.01963 -0.072,0.0915 -0.0541,-0.04575 -0.0656,-0.118856 -0.007,0.02045 -0.0141,0.04117 -0.0212,0.06149 -0.007,0.01722 -0.0132,0.03394 -0.0212,0.05064 -0.0254,0.04898 -0.0662,0.07991 -0.12816,0.06356 -0.0187,-0.0049 -0.0312,-0.02244 -0.047,-0.03359 -0.006,-0.0097 -0.0115,-0.01876 -0.0165,-0.02894 -0.002,-0.004 -0.003,-0.0084 -0.005,-0.01291 -0.014,0.02638 -0.0299,0.0517 -0.0418,0.07906 -0.0103,0.02882 -0.007,0.01852 -0.015,0.04496 -0.003,0.01291 -0.007,0.02691 -0.006,0.04031 h -0.002 c 0.001,0.0141 -0.005,0.01984 -0.0119,0.0072 -0.0185,-0.03208 -0.005,-0.06955 0.006,-0.101804 0.0156,-0.04061 0.0409,-0.07632 0.062,-0.114204 -0.002,-0.01614 -0.003,-0.03228 -0.004,-0.04599 -0.002,-0.0272 -0.002,-0.05443 -0.003,-0.08165 -5.3e-4,-0.0052 -5.3e-4,-0.01034 -0.002,-0.0155 -0.002,0.0057 -0.006,0.01074 -0.008,0.01654 -0.009,0.02437 -0.0178,0.04903 -0.0238,0.07441 -0.009,0.03994 -0.0483,0.03306 -0.0403,-0.0067 0.006,-0.028 0.0153,-0.05535 0.0253,-0.08217 0.0109,-0.0294 0.0268,-0.05636 0.0419,-0.08372 8e-4,-0.01297 0.003,-0.02582 0.006,-0.03928 0.0118,-0.03979 0.0414,-0.06787 0.0718,-0.09405 0.003,-0.0043 0.005,-0.0086 0.008,-0.01291 0.0172,-0.02913 0.0345,-0.05823 0.0507,-0.08785 0.008,-0.01373 0.0147,-0.02777 0.0217,-0.04186 0.002,-0.0041 0.005,-0.0077 0.006,-0.01188 v -5.3e-4 c -5.3e-4,-0.0011 -5.3e-4,-0.0024 -0.002,-0.0036 5.3e-4,7.93e-4 2.6e-4,0.0013 0.002,0.0021 0.002,0.0013 0.002,0.0045 0.004,0.0041 0.01,-0.0019 0.011,-0.0029 0.016,-0.0036 0.001,-0.0019 0.002,-0.0034 0.003,-0.0052 -0.0113,-0.0029 -0.025,-0.0075 -0.0284,-0.0057 v -0.0021 c 10e-4,-0.0096 0.003,-0.0127 0.0129,-0.01344 h 5.2e-4 5.3e-4 5.3e-4 5.3e-4 c 0.001,-1.6e-5 0.003,2.1e-5 0.004,0 0.005,-6.1e-5 0.011,0.0011 0.0186,0.0011 10e-4,0 10e-4,0.0019 0.002,0.0026 0.0244,-0.03403 0.0545,-0.04982 0.0822,-0.05064 0.0157,-5.29e-4 0.0311,0.0036 0.0439,0.01188 0.005,-0.0065 0.01,-0.01336 0.015,-0.01963 0.0117,-0.01381 0.0244,-0.02812 0.0393,-0.03876 0.008,-0.006 0.0179,-0.01082 0.0269,-0.01603 0.0152,0.0011 0.0314,-0.0013 0.047,-0.0021 0.0157,-7.94e-4 0.0309,5.29e-4 0.0439,0.0083 0.009,0.0056 0.0164,0.01206 0.0227,0.0186 0.0421,-0.04078 0.0826,-0.08331 0.1266,-0.121957 0.0359,-0.03098 0.0719,-0.06186 0.10904,-0.09147 0.008,-0.0061 0.016,-0.0097 0.0233,-0.01035 z m 0.008,0.03411 c -0.001,7.93e-4 -0.003,0.0024 -0.005,0.0036 8e-4,-1.27e-4 0.002,6.8e-5 0.003,-5.3e-4 10e-4,-5.29e-4 0.003,-0.0035 0.002,-0.0031 z m -0.008,0.0067 c -0.0359,0.02887 -0.0714,0.05898 -0.10645,0.08888 -0.0464,0.04044 -0.0895,0.0845 -0.13333,0.127641 0.004,0.01434 0.005,0.02964 0.003,0.04496 0.0317,-0.0016 0.0628,0.0084 0.0894,0.02687 0.005,0.0033 0.009,0.0067 0.014,0.01034 0.0135,0.01201 0.0249,0.02622 0.0336,0.04186 0.003,-0.0021 0.006,-0.0037 0.009,-0.0047 0.006,-0.0019 0.0124,-0.003 0.0186,-0.0041 0.007,-0.006 0.0141,-0.01204 0.0212,-0.0181 0.006,-0.003 0.0114,-0.0075 0.0186,-0.01138 0.005,-0.0176 0.0107,-0.03499 0.0145,-0.05271 0.0162,-0.06964 0.0248,-0.141391 0.0233,-0.212905 0,-0.0074 -2.4e-4,-0.01482 -0.002,-0.02222 -10e-4,-0.0044 -0.003,-0.0084 -0.003,-0.01291 0,-5.29e-4 -5e-5,-0.0011 0,-0.0016 z m 0.81442,0.258384 c -0.008,0.0024 -0.0173,0.0042 -0.0253,0.0072 -0.034,0.01206 -0.0642,0.03894 -0.0925,0.0646 7.9e-4,0.0013 0.002,0.0027 0.003,0.0041 0.01,0.01976 0.0135,0.04128 0.0165,0.06305 0.002,-0.0016 0.004,-0.003 0.007,-0.0047 0.002,-0.01201 0.005,-0.024 0.008,-0.03566 0.008,-0.01257 0.0111,-0.02932 0.0233,-0.03772 0.0221,-0.01543 0.0476,-0.02769 0.0744,-0.03049 0.005,-5.29e-4 0.01,-2.64e-4 0.0145,5.3e-4 0.006,-0.0099 0.0147,-0.01897 0.0248,-0.02687 -0.0174,-0.0033 -0.0346,-0.0069 -0.0532,-0.0041 z m -0.6165,0.0067 c 1e-4,-7.94e-4 3e-5,0.0024 0,0.0031 2e-4,-0.0011 5.3e-4,-0.0028 5.3e-4,-0.0031 z m 0,0.0031 h -5.3e-4 c 0,5.29e-4 7e-5,0.0016 0,0.0021 1.8e-4,-7.94e-4 5.3e-4,-0.0013 5.3e-4,-0.0021 z m -5.3e-4,0.0021 h -5.3e-4 c 0,1.61e-4 5e-5,7.94e-4 0,0.0011 1.2e-4,-2.64e-4 5.3e-4,-7.93e-4 5.3e-4,-0.0011 z m -5.3e-4,0.0011 h -5.3e-4 c -1.2e-4,9.3e-5 8e-5,7.94e-4 0,0.0011 1.7e-4,-2.65e-4 5.3e-4,-7.94e-4 5.3e-4,-0.0011 z m 0.32814,0.134358 c -2.6e-4,-5.29e-4 2.2e-4,0.0013 5.3e-4,0.0021 5.3e-4,0.0019 0.002,0.0038 0.003,0.0057 -5.2e-4,-0.0033 -0.002,-0.006 -0.003,-0.0078 z m -0.57826,0.409276 c -0.005,0.0062 -0.01,0.01244 -0.0145,0.0186 -0.0107,0.01262 -0.0209,0.02569 -0.0315,0.03824 0.0246,0.0073 0.0488,0.01873 0.0739,0.01394 0.001,-2.06e-4 0.002,-7.94e-4 0.003,-0.0011 -0.0143,-0.01622 -0.0254,-0.03944 -0.0305,-0.06976 z" />
    </clipPath>
    <clipPath
       clipPathUnits="userSpaceOnUse"
       id="clipPath380">
      <path
         id="path381"
         style="fill:#ff0000;fill-opacity:1;fill-rule:nonzero;stroke:none;stroke-width:0.264583"
         d="m 135.62686,58.348377 v 24.549405 l 0.16485,-0.11007 V 58.348377 Z" />
    </clipPath>
    <clipPath
       clipPathUnits="userSpaceOnUse"
       id="clipPath388">
      <path
         id="path389"
         style="fill:#ff0000;fill-opacity:1;fill-rule:nonzero;stroke:none;stroke-width:0.264583"
         d="m 139.33271,65.414934 -8e-5,-3.640372 c -0.0172,-1.22e-4 -0.031,1.37e-4 -0.052,3.94e-4 -0.0255,-0.0032 -0.0511,-0.0056 -0.0766,-0.0094 -0.004,-4.8e-4 -0.10998,-0.01944 -0.11898,-0.02052 -0.0905,-0.01077 -0.18025,-0.0024 -0.26955,0.01495 -0.1083,0.01942 -0.21004,0.03994 -0.32007,0.05004 -0.23336,0.02143 -0.46585,-4.05e-4 -0.69012,-0.06964 -0.13616,-0.03563 -0.27244,-0.07282 -0.41371,-0.08182 -0.17896,-0.01146 -0.35736,0.01392 -0.53399,0.03897 -0.16025,0.01995 -0.28834,0.04086 -0.45088,0.04149 -0.0772,2.66e-4 -0.15498,-0.0039 -0.23168,-0.01247 -0.20149,-0.02252 -0.39345,-0.08636 -0.58837,-0.138087 -0.10601,-0.02479 -0.17689,-0.04413 -0.26609,-0.05755 -0.007,0.0035 -0.0135,0.0077 -0.0208,0.0096 -0.0274,0.0072 -0.0473,0.0044 -0.0729,-0.0056 -0.002,0.0053 -0.004,0.01107 -0.006,0.01643 -0.0102,0.02752 -0.0193,0.05539 -0.0298,0.0828 -0.003,0.0059 -0.002,0.01182 -0.0105,0.0091 -0.004,-0.0017 -0.009,-0.0037 -0.0126,-0.0053 -0.0157,-0.0021 -0.0176,-0.0025 -0.0119,-0.01741 9.8e-4,-0.0038 0.003,-0.0074 0.004,-0.01116 -0.005,-0.0053 -0.008,-0.01495 -0.006,-0.02828 0.004,-0.02261 0.0116,-0.04384 0.0206,-0.06466 -0.0642,-0.0036 -0.12846,-0.0025 -0.19249,-3.32e-4 l -4.4e-4,-3.01e-4 -2.9e-4,4.39e-4 c -0.0338,0.0011 -0.0676,0.0012 -0.10136,0.0032 -0.0111,0.01006 -0.0239,0.01753 -0.0383,0.02155 -0.0601,0.04329 -0.12412,0.07717 -0.19359,0.0825 -8e-5,0.0025 -4.8e-4,0.0045 -1.8e-4,0.0067 l -0.002,-1.2e-5 c 0.001,0.0141 -0.005,0.01985 -0.0124,0.0072 -0.002,-0.0039 -0.003,-0.0082 -0.004,-0.01236 -9.5e-4,-6e-6 -0.002,-1.6e-4 -0.003,-1.66e-4 -0.0479,-5.29e-4 -0.0908,-0.01891 -0.12914,-0.04609 -0.0253,2.69e-4 -0.0512,-0.0011 -0.0759,-0.0076 -0.0161,-0.0042 -0.03,-0.0119 -0.0434,-0.02063 -0.028,7.87e-4 -0.0554,0.0019 -0.0834,0.0016 -0.18589,-0.01283 -0.21631,-0.01012 -0.34046,-0.03608 -0.014,8.2e-5 -0.0213,-6.24e-4 -0.038,-9e-5 -0.0111,-0.0066 -0.0132,-0.0073 -0.023,-0.013 -0.007,-0.0016 -0.0106,-0.0026 -0.0183,-0.0043 -0.0392,-0.009 -0.21278,-0.05958 -0.26326,-0.07373 -0.0112,-0.0031 -0.0217,-0.007 -0.0329,-0.01039 -5.4e-4,-1.56e-4 -0.001,6.5e-5 -0.002,-3.08e-4 -0.008,-5.27e-4 -0.0143,-0.0023 -0.0215,-0.0033 -0.0606,0.04555 -0.1169,0.07182 -0.18642,0.08484 l 0.0679,0.672053 c -0.0953,0.0064 -0.19042,0.0155 -0.28538,0.02546 0.15402,0.113262 0.2925,0.244026 0.42172,0.384724 0.16108,0.18009 0.27165,0.391181 0.35349,0.616779 0.0455,0.15683 0.0264,0.08265 0.058,0.222516 l -1.57009,0.337407 1.7e-4,1.660305 z m 1.4e-4,-4.300681 -1.3e-4,-0.0026 c -0.003,5.69e-4 -0.005,8.85e-4 -0.007,0.0014 0.002,3.79e-4 0.005,6.78e-4 0.007,0.0012 z m -3.36945,-0.190442 -0.0532,2.43e-4 c 0.006,0.0066 0.0122,0.01301 0.0174,0.02046 0.002,0.0036 0.005,0.01041 0.008,0.01783 0.007,-0.01405 0.017,-0.02701 0.0279,-0.03851 z m -0.21713,0.0223 c 10e-4,-0.0026 0.002,-0.0051 0.004,-0.0074 0.003,-0.0044 0.006,-0.0096 0.009,-0.01444 l -0.0514,-4.65e-4 c 0.002,0.0048 0.003,0.0096 0.005,0.01437 0.009,0.0019 0.0126,0.0026 0.0217,0.0047 0.004,0.0011 0.008,0.0022 0.0122,0.0032 z m -2.69549,1.353214 c 0.005,-0.0089 0.005,-0.02852 0.003,-0.05115 -0.005,0.02087 -0.019,0.06194 -0.007,0.05528 0.002,-8.71e-4 0.003,-0.0024 0.004,-0.0041 z m 0.001,-0.06162 c -6.4e-4,-0.0038 -0.001,-0.0074 -0.002,-0.01118 -5.3e-4,0.005 -0.001,0.0083 -0.001,0.01404 0.001,-0.0019 0.002,-0.0019 0.003,-0.0028 z m -0.0856,-0.02103 c -0.0562,0.01415 -0.0785,0.03349 0,0 z" />
    </clipPath>
    <clipPath
       clipPathUnits="userSpaceOnUse"
       id="clipPath42">
      <path
         id="path43"
         style="fill:#ff0000;fill-opacity:1;fill-rule:nonzero;stroke:none;stroke-width:0.264583"
         d="m 23.875584,50.200561 v 19.872627 c 2.72832,-6.637167 5.444055,-13.280837 8.280667,-19.872627 z m 30.949576,0 c -0.208078,1.139347 -0.424243,2.277177 -0.635989,3.415817 0.131393,0.02731 0.266184,0.04268 0.395246,0.07283 0.245707,0.0574 0.488161,0.127301 0.732289,0.191072 0.817956,0.235063 1.606962,0.562066 2.367818,0.941642 0.141474,0.07058 0.285979,0.136037 0.419931,0.220022 0.111693,0.07003 0.209482,0.160338 0.314185,0.240438 0.263563,0.424987 0.148977,0.158731 0.25141,0.659456 0.02813,0.137501 0.136141,0.464412 0.05729,0.606124 -0.109351,0.196529 -0.246474,0.172337 -0.405303,0.173093 l -0.04327,-0.09934 c 0.0011,-0.07591 0.02147,-0.235552 -0.182844,0.01767 -0.03913,0.04851 -0.0027,0.127425 -0.02804,0.184367 -0.0191,0.04289 -0.05965,0.07518 -0.09934,0.100259 -0.268941,0.169921 -0.247774,0.127858 -0.558586,0.132258 -0.103806,-0.0385 -0.210847,-0.06927 -0.311445,-0.115497 -0.122135,-0.05614 -0.23564,-0.128981 -0.355019,-0.190767 -0.136938,-0.07088 -0.273969,-0.142323 -0.413836,-0.207222 -0.186791,-0.08667 -0.387436,-0.138431 -0.579002,-0.213927 l -0.131039,0.190767 c -0.198785,0.06023 -0.402439,0.08587 -0.607345,0.09386 0.09132,0.08456 0.183174,0.168787 0.271828,0.255981 0.694568,0.683169 1.321843,1.436035 1.847936,2.256591 0.08849,0.152491 0.181876,0.302333 0.265733,0.457413 0.416055,0.769385 0.723433,1.593728 0.930671,2.442786 0.102677,0.475329 0.192754,0.946291 0.245924,1.43014 0.03213,0.292451 0.06051,0.583749 0.04967,0.87856 -0.0051,0.139684 -0.02625,0.278321 -0.03931,0.417494 -0.03063,0.244502 -0.05803,0.489435 -0.08959,0.73381 -0.0038,0.0295 -0.0059,0.05968 -0.0082,0.08959 0.277111,0.275909 0.599289,0.604087 1.09188,1.062929 0.185805,0.354323 0.408923,0.69129 0.557062,1.062929 0.502261,1.260017 0.4888,2.628256 0.218802,3.934178 -0.263029,0.881408 -0.649283,1.722714 -1.158311,2.490935 -0.102456,0.1519 -0.35086,0.519234 -0.433338,0.595763 0.186136,-0.378742 0.01726,-0.04709 -0.03779,0.032 -0.182106,0.979656 -0.240424,1.97881 -0.498554,2.945606 -0.464933,1.592861 -1.116544,2.867874 -2.267561,4.083805 -0.645368,0.669932 -1.321045,1.309493 -1.944234,2.000609 -1.082284,1.218782 -2.254058,2.345638 -3.65717,3.195492 -0.626328,0.417854 -1.250564,0.835286 -1.85921,1.278685 -0.01087,0.0079 -0.03685,0.02749 -0.04967,0.03718 H 182.77707 V 50.200561 Z m -2.383972,12.639652 c -0.119377,0.61789 -0.237704,1.235965 -0.357762,1.853724 0.238604,-0.05312 0.476771,-0.109015 0.714917,-0.163643 0.345449,-0.07352 0.703442,-0.133585 1.058968,-0.196252 -0.08659,-0.04865 -0.168952,-0.115609 -0.251106,-0.166387 -0.163673,-0.101163 -0.3224,-0.319026 -0.467164,-0.49703 -0.400964,-0.126114 -0.578904,-0.441344 -0.660369,-0.785007 -0.01254,-0.01509 -0.02493,-0.03032 -0.03748,-0.04541 z m 4.003051,0.09965 c -0.02188,0.01411 -0.0411,0.01956 -0.05729,0.01737 -0.242382,0.202827 -0.1477,0.130704 -0.562852,0.4373 -0.122058,0.0074 -0.250069,0.04347 -0.376048,0.06918 -0.0028,0.01482 -0.0058,0.02965 -0.0085,0.04449 -0.0994,0.187332 -0.1205,0.446241 -0.298033,0.562242 -0.08315,0.05433 -0.171729,0.100991 -0.263599,0.141095 0.366771,-0.01312 0.733483,-0.0021 1.095535,0.08319 0.303587,0.07144 0.480112,0.137817 0.7009,0.204785 -0.0049,-0.02519 -0.01127,-0.05026 -0.01554,-0.07558 -0.04637,-0.273891 -0.05773,-0.488318 -0.09325,-0.764285 -0.03121,-0.242424 -0.07432,-0.481218 -0.121286,-0.719793 z m -32.568655,8.38702 V 88.29596 h 3.554473 c 0.370743,-1.304049 0.740957,-2.608301 1.106507,-3.913762 0.0058,-0.0206 0.0113,-0.04126 0.01707,-0.06186 -0.508332,-1.449389 -0.698389,-2.968763 -0.600031,-4.50983 0.05628,-0.878049 0.257784,-1.739602 0.287674,-2.619534 -0.02954,-0.546868 -0.03679,-1.092108 -0.120982,-1.634314 -0.09247,-0.764123 -0.176999,-1.528058 -0.228249,-2.297122 -0.005,-0.09595 -0.0122,-0.19176 -0.01768,-0.287674 z" />
    </clipPath>
  </defs>
  <g
     id="layer1">
    <path
       style="fill:#000000;fill-opacity:0.392739;stroke:none;stroke-width:0.449375;stroke-linecap:round;stroke-linejoin:round;stroke-miterlimit:0.7;stroke-dasharray:none"
       id="path27"
       d="m 21.803643,67.057133 c -2.487526,5.771495 -2.809385,12.182006 -3.370479,18.362186 -0.303538,4.139678 -0.766143,8.258735 -0.826773,12.411234 -0.11499,4.589067 -0.489378,9.184787 -0.30256,13.777337 0.03549,0.87204 0.118975,1.74148 0.178454,2.61221 0.233852,1.77155 0.475755,3.66488 1.398123,5.24197 0.232146,0.39693 0.523239,0.75636 0.778098,1.13908 1.327507,2.61633 2.553661,5.29171 4.163749,7.75302 0.42166,0.64457 0.885608,1.26047 1.328409,1.89072 1.152934,1.56002 2.294872,3.24714 3.937866,4.34624 0.301866,0.20194 0.923149,0.46409 1.243243,0.60822 1.019819,0.36009 2.00325,0.85515 3.073162,1.06467 2.812126,0.55072 5.727796,0.5911 8.578558,0.72181 3.50358,0.017 7.182138,0.5282 10.532681,-0.75795 2.088963,-1.04481 4.233952,-1.97007 6.344723,-2.97262 2.102791,-0.88696 3.899805,-2.29018 5.85213,-3.43434 2.802951,-1.29803 4.469221,-4.0885 5.964908,-6.65323 1.134412,-2.35152 1.959278,-4.83586 2.503308,-7.38616 0.698415,-3.59979 1.370011,-7.20325 1.799177,-10.84707 0.248745,-4.07706 0.324022,-8.166057 0.458941,-12.25012 0.09405,-5.485773 0.366035,-11.012786 -0.446858,-16.464411 -0.228053,-1.529418 -0.582312,-3.03734 -0.873472,-4.556013 -1.565524,-5.39146 -2.79327,-11.872604 -6.663659,-16.205206 -0.392986,-0.439916 -0.868272,-0.798727 -1.302405,-1.198089 -0.508308,-0.276056 -0.994504,-0.59743 -1.524924,-0.828177 -2.974292,-1.293921 -7.535809,-1.255079 -10.753642,-1.337994 -3.378455,-0.01628 -6.746102,0.369787 -10.018609,1.217971 -1.765082,0.457481 -2.542061,0.787084 -4.246147,1.409022 -1.891105,0.805542 -3.68391,1.810958 -5.502006,2.76191 0,0 0.0013,8.65e-4 0.0013,8.65e-4 v 0 c 1.818087,-0.950957 3.610897,-1.956355 5.501998,-2.761894 1.704095,-0.621933 2.481038,-0.951526 4.246134,-1.409004 3.272498,-0.84817 6.640134,-1.23427 10.018586,-1.217932 3.218652,0.08294 7.778345,0.0441 10.753594,1.338056 0.529412,0.230243 1.014684,0.550979 1.522027,0.826472 0.434142,0.399352 0.909428,0.758149 1.302419,1.198061 3.870434,4.332535 5.098165,10.813712 6.663696,16.205135 0.291159,1.518668 0.645419,3.026584 0.87348,4.555999 0.812894,5.451617 0.540926,10.978624 0.446866,16.464394 -0.134911,4.084048 -0.210204,8.173055 -0.458942,12.250105 -0.42915,3.64381 -1.100754,7.24727 -1.799162,10.84706 -0.544021,2.55028 -1.36888,5.03461 -2.503283,7.38611 -1.495679,2.56471 -3.161932,5.35513 -5.964865,6.65315 -1.952317,1.14418 -3.749339,2.54737 -5.852122,3.43433 -2.110769,1.00255 -4.255749,1.92782 -6.344717,2.97261 -3.350545,1.28609 -7.029074,0.77486 -10.532641,0.75789 -2.850753,-0.13072 -5.766413,-0.1711 -8.57853,-0.72183 -1.069909,-0.20954 -2.053335,-0.7046 -3.073149,-1.06469 -0.316963,-0.14273 -0.940768,-0.40609 -1.240341,-0.60654 -1.642878,-1.09931 -2.785057,-2.78598 -3.937889,-4.34621 -0.442801,-0.63024 -0.906747,-1.24613 -1.328409,-1.8907 -1.610098,-2.4613 -2.836272,-5.13668 -4.163749,-7.75301 -0.254854,-0.38273 -0.54595,-0.74215 -0.778101,-1.13907 -0.922403,-1.57706 -1.164295,-3.47038 -1.398156,-5.24192 -0.05949,-0.87072 -0.142986,-1.74016 -0.178459,-2.61219 -0.186821,-4.59255 0.187572,-9.18826 0.302562,-13.777347 0.06062,-4.15249 0.523225,-8.271542 0.826763,-12.411217 0.56109,-6.180154 0.882944,-12.590634 3.370438,-18.362107 z" />
    <g
       id="g408"
       clip-path="url(#clipPath42)"
       transform="matrix(1.6957615,0,0,1.6957615,-29.817146,-15.09111)">
      <g
         id="g44">
        <rect
           style="fill:none;fill-opacity:1;stroke:#3dd979;stroke-width:0.163772;stroke-linecap:square;stroke-linejoin:miter;stroke-miterlimit:3.5;stroke-dasharray:none;stroke-dashoffset:0;stroke-opacity:0.992157;paint-order:markers stroke fill"
           id="rect407-9"
           width="1.9498093"
           height="1.9498093"
           x="163.50497"
           y="78.047386"
           rx="0"
           ry="0" />
        <rect
           style="fill:none;fill-opacity:1;stroke:#18d2d2;stroke-width:0.163772;stroke-linecap:square;stroke-linejoin:miter;stroke-miterlimit:3.5;stroke-dasharray:none;stroke-dashoffset:0;stroke-opacity:1;paint-order:markers stroke fill"
           id="rect407-9-2"
           width="1.9498093"
           height="1.9498093"
           x="163.48734"
           y="58.147148"
           rx="0"
           ry="0" />
        <path
           style="fill:none;stroke:#3ed979;stroke-width:0.420843px;stroke-linecap:butt;stroke-linejoin:miter;stroke-opacity:0.990566"
           d="m 132.77454,65.212636 c 0,0 3.4639,1.019055 5.69554,-0.04076"
           id="path383" />
        <path
           style="fill:#808080;stroke:#666666;stroke-width:0.165;stroke-linecap:butt;stroke-linejoin:miter;stroke-dasharray:0.66, 0.33;stroke-dashoffset:0;stroke-opacity:1"
           d="m 135.70944,58.348279 c 0,0 0,24.797032 0,24.797032"
           id="path369"
           clip-path="url(#clipPath380)" />
        <path
           style="fill:none;fill-opacity:1;stroke:#ffffff;stroke-width:0.343;stroke-linecap:round;stroke-dasharray:none;stroke-opacity:1"
           id="path71-6"
           d="m 139.16083,61.178787 a 3.2874022,4.0679245 0 0 1 -1.66222,3.53606 3.2874022,4.0679245 0 0 1 -3.30572,-0.03985 3.2874022,4.0679245 0 0 1 -1.60624,-3.575458 l 3.28678,0.07925 z"
           clip-path="url(#clipPath346-3)"
           transform="rotate(60.499108,85.4005,-2.6449373)" />
        <path
           style="fill:none;fill-opacity:1;stroke:#18d2d2;stroke-width:0.343;stroke-linecap:round;stroke-dasharray:none;stroke-opacity:1"
           id="path71-6-6"
           d="m 139.16083,61.178787 a 3.2874022,4.0679245 0 0 1 -1.66222,3.53606 3.2874022,4.0679245 0 0 1 -3.30572,-0.03985 3.2874022,4.0679245 0 0 1 -1.60624,-3.575458 l 3.28678,0.07925 z"
           clip-path="url(#clipPath388)"
           transform="rotate(-111.7667,103.37453,90.543198)" />
        <rect
           style="fill:none;fill-opacity:1;stroke:#666666;stroke-width:0.1;stroke-linecap:round;stroke-dasharray:none;stroke-dashoffset:0;stroke-opacity:1"
           id="rect351"
           width="0.093544334"
           height="37.791912"
           x="92.155937"
           y="57.089718"
           transform="rotate(-3.9880963)"
           clip-path="url(#clipPath365)" />
        <rect
           style="fill:none;fill-opacity:1;stroke:#666666;stroke-width:0.1;stroke-linecap:round;stroke-dasharray:none;stroke-dashoffset:0;stroke-opacity:1"
           id="rect351-5"
           width="0.093544334"
           height="37.791912"
           x="92.155937"
           y="57.089718"
           transform="rotate(-126.0077,92.771172,74.222111)"
           clip-path="url(#clipPath365-5)" />
        <rect
           style="fill:#666666;fill-opacity:1;stroke:#666666;stroke-width:0.1;stroke-linecap:round;stroke-dasharray:none;stroke-dashoffset:0;stroke-opacity:1;paint-order:markers stroke fill"
           id="rect351-5-0"
           width="0.093544334"
           height="37.791912"
           x="92.155937"
           y="57.089718"
           transform="rotate(117.98136,97.148665,77.040323)"
           clip-path="url(#clipPath365-5-2)" />
        <path
           style="fill:none;fill-opacity:1;stroke:#ffffff;stroke-width:0.689;stroke-linecap:round;stroke-dasharray:none;stroke-opacity:1"
           id="path70"
           d="M 117.16427,79.278821 81.673285,86.018535 93.582014,51.912582 Z"
           transform="matrix(1.0257449,0.12188048,-0.12188048,1.0257449,6.3151099,-13.744097)" />
        <path
           style="fill:none;stroke:#000000;stroke-width:0;stroke-linecap:butt;stroke-linejoin:miter;stroke-dasharray:none;stroke-opacity:1"
           d="m 135.71922,58.417721 1.29188,3.432292 -2.55908,-0.0214 z"
           id="path181" />
        <path
           style="font-size:38.2673px;font-family:'AvantGarde Normal';-inkscape-font-specification:'AvantGarde Normal, ';letter-spacing:1.5584px;fill:#ffffff;fill-opacity:1;stroke:#ffffff;stroke-width:0.289;stroke-linecap:round;stroke-opacity:1"
           d="m 41.551557,69.61297 h 16.91011 q 0,2.896207 -1.121112,5.343968 -1.102427,2.429077 -3.1578,4.428394 -3.923893,3.811782 -9.678936,3.811782 -5.885839,0 -9.865788,-4.110745 -3.961263,-4.110745 -3.961263,-10.202122 0,-2.858836 1.065056,-5.41871 1.083742,-2.559873 3.1578,-4.577875 2.074058,-2.036687 4.52182,-3.008318 2.466447,-0.97163 5.418709,-0.97163 3.942578,0 7.081693,1.924576 3.157799,1.905891 5.082375,5.45608 h -3.288596 q -1.905891,-2.447762 -4.110745,-3.606245 -2.204854,-1.177168 -4.914209,-1.177168 -4.652616,0 -7.922527,3.363337 -3.251225,3.344652 -3.251225,8.053323 0,5.007635 3.23254,8.352287 3.232541,3.344652 7.978583,3.344652 3.737041,0 6.689303,-2.391707 2.970948,-2.391706 3.867838,-6.203488 H 41.551557 Z m 41.937127,3.587559 H 64.934275 q 0,1.644298 0.653982,3.045689 0.597927,1.289279 1.775095,2.391706 2.186169,2.074058 5.45608,2.074058 2.29828,0 4.148115,-1.195854 1.868521,-1.195853 2.877522,-3.363336 h 2.989633 q -1.401391,3.400707 -3.979949,5.250542 -2.578558,1.83115 -5.96058,1.83115 -4.465764,0 -7.586194,-3.19517 -3.101744,-3.213855 -3.101744,-7.679619 0,-4.671301 3.027004,-7.735675 3.027003,-3.083059 7.773045,-3.083059 4.59656,0 7.530137,3.19517 2.952263,3.19517 2.952263,8.277546 z M 80.573792,70.97699 q -0.728723,-3.419393 -2.746725,-5.175802 -2.018002,-1.775094 -5.213173,-1.775094 -1.476131,0 -2.746725,0.46713 -1.270594,0.46713 -2.316965,1.420075 -2.074058,1.849836 -2.541188,5.063691 z m 9.144594,1.382705 q 0,3.531504 2.242225,5.941895 2.260909,2.410392 5.642931,2.410392 3.325968,0 5.549508,-2.391707 2.24222,-2.410391 2.24222,-5.99795 0,-3.643615 -2.26091,-5.979266 -2.26091,-2.354336 -5.773725,-2.354336 -3.120429,0 -5.381339,2.410392 -2.26091,2.410391 -2.26091,5.96058 z m -2.76541,0.03737 q 0,-4.521819 3.101744,-7.735674 3.101744,-3.213856 7.343285,-3.213856 4.447075,0 7.604875,3.1578 3.1578,3.1578 3.1578,7.530138 0,4.59656 -3.08306,7.847786 -3.08305,3.251225 -7.474078,3.251225 -4.465763,0 -7.567507,-3.176485 -3.083059,-3.19517 -3.083059,-7.660934 z m 34.276194,-1.251908 v 2.485132 h -8.76336 v -2.485132 z m 5.2207,11.510086 h -2.82147 l 10.55715,-27.205658 h 3.21385 l 10.51977,27.205658 h -2.85884 l -3.25122,-8.539139 H 129.7011 Z m 14.42498,-10.986901 -5.15712,-13.658884 -5.08237,13.658884 z m 13.27402,10.986901 h -2.67199 V 55.449585 h 2.67199 z m 9.2567,-24.608415 V 80.09537 h 5.54951 q 5.15712,0 7.97858,-2.914892 2.82147,-2.914892 2.82147,-8.258861 0,-2.653299 -0.95295,-4.914209 -0.95294,-2.260909 -2.72804,-3.811781 -1.30796,-1.139798 -2.95226,-1.644298 -1.6443,-0.504501 -4.8021,-0.504501 z m -2.63461,-2.597243 h 7.73567 q 1.62562,0 2.9149,0.149481 1.30796,0.149482 2.44776,0.485816 2.16748,0.616611 3.84915,2.036687 2.31697,1.943261 3.60625,4.802098 1.30796,2.840151 1.30796,6.072691 0,3.606245 -1.42008,6.577192 -1.42007,2.970948 -4.01732,4.820783 -1.71903,1.214538 -3.75572,1.737724 -2.018,0.523186 -6.12875,0.523186 h -6.53982 z"
           id="text6"
           clip-path="url(#clipPath377)"
           aria-label="Geo-AID" />
        <ellipse
           style="fill:#3dd979;fill-opacity:0.992157;stroke:none;stroke-width:0.117076;stroke-linecap:round;stroke-dasharray:0.468305, 0.234152;stroke-dashoffset:0;stroke-opacity:0.990566;paint-order:markers stroke fill"
           id="path385"
           cx="152.81337"
           cy="55.29332"
           rx="1.480973"
           ry="1.4072614" />
        <ellipse
           style="fill:#18d2d2;fill-opacity:1;stroke:none;stroke-width:0.119754;stroke-linecap:round;stroke-dasharray:0.479015, 0.239507;stroke-dashoffset:0;stroke-opacity:0.990566;paint-order:markers stroke fill"
           id="path385-4"
           cx="152.81361"
           cy="82.756866"
           rx="1.4825234"
           ry="1.4708304" />
        <circle
           id="path29"
           style="fill:#000000;stroke:#ffffff;stroke-width:0.264583;stroke-opacity:1"
           cx="28.574999"
           cy="71.305206"
           r="2.2061247e-06" />
      </g>
    </g>
    <g
       id="g406"
       transform="matrix(1.6957615,0,0,1.6957615,-47.642128,-116.54773)"
       style="fill:#ffffff;fill-opacity:1;stroke:none;stroke-opacity:1">
      <g
         id="g43"
         style="fill:#ffffff;fill-opacity:1;stroke:none;stroke-width:0.1;stroke-dasharray:none;stroke-opacity:1">
        <path
           style="fill:#ffffff;fill-opacity:1;stroke:none;stroke-width:0.1;stroke-linecap:round;stroke-linejoin:round;stroke-dasharray:none;stroke-opacity:1"
           d="m 52.413331,129.56555 -0.01767,2.36243 6.664156,0.0219 z"
           id="path10" />
        <path
           style="fill:#ffffff;fill-opacity:1;stroke:none;stroke-width:0.1;stroke-linecap:round;stroke-linejoin:round;stroke-dasharray:none;stroke-opacity:1"
           d="m 52.420577,129.56599 12.177736,0.11426 -5.640739,2.26892 7.160243,0.053 -1.555559,-2.32266 4.613645,-0.0278 -0.547054,4.00246 -2.515997,-1.66643 3.044971,-2.32884"
           id="path11" />
        <path
           style="fill:#ffffff;fill-opacity:1;stroke:none;stroke-width:0.1;stroke-linecap:round;stroke-linejoin:round;stroke-dasharray:none;stroke-opacity:1"
           d="m 66.144208,131.98802 -1.555739,3.86831 4.026746,-2.1749 -1.964454,3.77372 -1.956232,-1.64257 -0.989901,4.41862 2.937399,-2.76487"
           id="path12" />
        <path
           style="fill:#ffffff;fill-opacity:1;stroke:none;stroke-width:0.1;stroke-linecap:round;stroke-linejoin:round;stroke-dasharray:none;stroke-opacity:1"
           d="m 63.663245,140.24858 -4.964944,2.62988 1.691676,-3.2421 z"
           id="path13" />
        <path
           style="fill:#ffffff;fill-opacity:1;stroke:none;stroke-width:0.1;stroke-linecap:round;stroke-linejoin:round;stroke-dasharray:none;stroke-opacity:1"
           d="m 64.698454,135.77642 -4.246357,3.76674"
           id="path14" />
        <path
           style="fill:#ffffff;fill-opacity:1;stroke:none;stroke-width:0.1;stroke-linecap:round;stroke-linejoin:round;stroke-dasharray:none;stroke-opacity:1"
           d="m 58.684416,142.88397 -6.03368,0.0199 -2.639735,-3.79024 z"
           id="path15" />
        <path
           style="fill:#ffffff;fill-opacity:1;stroke:none;stroke-width:0.1;stroke-linecap:round;stroke-linejoin:round;stroke-dasharray:none;stroke-opacity:1"
           d="m 60.393174,139.59088 v 0 l -6.728967,1.08974"
           id="path16" />
        <path
           style="fill:#ffffff;fill-opacity:1;stroke:none;stroke-width:0.1;stroke-linecap:round;stroke-linejoin:round;stroke-dasharray:none;stroke-opacity:1"
           d="m 52.631641,142.91698 -5.496065,-2.43919 0.436025,-3.19764 2.407944,1.82055 -2.832185,1.12653"
           id="path17" />
        <path
           style="fill:#ffffff;fill-opacity:1;stroke:none;stroke-width:0.1;stroke-linecap:round;stroke-linejoin:round;stroke-dasharray:none;stroke-opacity:1"
           d="m 47.097942,140.43163 -3.226684,-3.21909 3.685469,0.07 -2.518433,-3.97611 -1.164756,3.90777 -1.970845,-5.18641 2.510654,-4.43597 0.62458,5.71518 -3.1229,-1.26473 -0.353537,-4.90384 2.852681,0.44082 -1.261768,-5.17762 -1.578579,4.73401"
           id="path18" />
        <path
           style="fill:#ffffff;fill-opacity:1;stroke:none;stroke-width:0.1;stroke-linecap:round;stroke-linejoin:round;stroke-dasharray:none;stroke-opacity:1"
           d="m 44.412431,127.55116 0.955464,-3.51894 -2.2,-1.64707 2.506398,-3.47551 -0.302027,5.12991 2.152197,-3.21292 1.308084,-4.23966"
           id="path19" />
        <path
           style="fill:#ffffff;fill-opacity:1;stroke:none;stroke-width:0.1;stroke-linecap:round;stroke-linejoin:round;stroke-dasharray:none;stroke-opacity:1"
           d="m 45.696817,118.89488 3.088592,-2.3437 3.181824,1.42382 -4.47765,2.88439 z"
           id="path20" />
        <path
           style="fill:#ffffff;fill-opacity:1;stroke:none;stroke-width:0.1;stroke-linecap:round;stroke-linejoin:round;stroke-dasharray:none;stroke-opacity:1"
           d="m 52.026155,117.91535 3.79462,-2.8914 -3.464653,0.24658 -3.556838,1.27521"
           id="path21" />
        <path
           style="fill:#ffffff;fill-opacity:1;stroke:none;stroke-width:0.1;stroke-linecap:round;stroke-linejoin:round;stroke-dasharray:none;stroke-opacity:1"
           d="m 52.367907,115.32621 -0.354962,2.62252 5.304467,-0.31974 -1.481908,-2.5952 3.28494,0.26458 -1.8113,2.32047 2.824771,0.86524 -1.039511,-3.16551 4.020997,1.7576 -2.979396,1.42257 3.285794,2.13301 -0.333484,-3.56208 4.657426,5.23898 -4.32266,-1.67115 1.084178,1.68632 3.239464,-0.0137 -0.0105,-0.002"
           id="path22" />
      </g>
      <path
         style="opacity:0.979167;fill:#ffffff;fill-opacity:1;fill-rule:evenodd;stroke:none;stroke-width:0.0668132;stroke-linecap:round;stroke-linejoin:round;stroke-miterlimit:0.7;stroke-dasharray:none;stroke-opacity:1"
         d="m 162.0889,481.03223 -4.61153,-0.72995 2.77188,-8.3085 c 1.82556,-5.47201 2.80938,-8.18781 2.88173,-7.95496 0.0604,0.19446 1.029,4.13216 2.15238,8.75045 1.12339,4.61829 2.08614,8.5361 2.13945,8.70625 0.12721,0.40599 0.19503,0.41188 -5.33391,-0.46329 z"
         id="path332"
         transform="scale(0.26458333)" />
      <path
         style="opacity:0.979167;fill:#ffffff;fill-opacity:1;fill-rule:evenodd;stroke:none;stroke-width:0.0668132;stroke-linecap:round;stroke-linejoin:round;stroke-miterlimit:0.7;stroke-dasharray:none;stroke-opacity:1"
         d="m 167.78806,480.56744 c -0.13142,-0.34734 -4.18123,-16.98778 -4.18123,-17.18042 0,-0.27011 7.33542,5.3502 7.38118,5.65537 0.0693,0.46184 -3.08606,11.82609 -3.19995,11.52505 z"
         id="path333"
         transform="scale(0.26458333)" />
      <path
         style="opacity:0.979167;fill:#ffffff;fill-opacity:1;fill-rule:evenodd;stroke:none;stroke-width:0.0668132;stroke-linecap:round;stroke-linejoin:round;stroke-miterlimit:0.7;stroke-dasharray:none;stroke-opacity:1"
         d="m 167.35723,465.33273 c -2.69162,-2.00735 -3.72313,-2.87279 -3.62392,-3.04043 0.62999,-1.06452 8.4575,-11.70401 8.49241,-11.54323 0.0612,0.28185 -0.95882,17.27075 -1.04092,17.33718 -0.0357,0.0289 -1.75813,-1.21017 -3.82757,-2.75352 z"
         id="path334"
         transform="scale(0.26458333)" />
      <path
         style="opacity:0.979167;fill:#ffffff;fill-opacity:1;fill-rule:evenodd;stroke:none;stroke-width:0.0668132;stroke-linecap:round;stroke-linejoin:round;stroke-miterlimit:0.7;stroke-dasharray:none;stroke-opacity:1"
         d="m 171.91534,466.7907 c 0,-0.68778 0.8225,-15.13782 0.92873,-16.31635 0.0392,-0.43434 0.35821,-0.13833 3.16726,2.93839 l 3.12372,3.42137 -3.45443,5.19335 c -1.89994,2.85634 -3.52437,5.26892 -3.60986,5.36128 -0.0913,0.0987 -0.15542,-0.14804 -0.15542,-0.59804 z"
         id="path335"
         transform="scale(0.26458333)" />
      <path
         style="opacity:0.979167;fill:#ffffff;fill-opacity:1;fill-rule:evenodd;stroke:none;stroke-width:0.0668132;stroke-linecap:round;stroke-linejoin:round;stroke-miterlimit:0.7;stroke-dasharray:none;stroke-opacity:1"
         d="m 176.29634,452.85139 -3.132,-3.4443 0.74552,-0.56666 c 8.13677,-6.18472 9.93866,-7.51514 9.986,-7.37312 0.0402,0.12067 -4.06073,13.75801 -4.42727,14.72247 -0.0221,0.0582 -1.44965,-1.44403 -3.17225,-3.33839 z"
         id="path336"
         transform="scale(0.26458333)" />
      <path
         style="opacity:0.979167;fill:#ffffff;fill-opacity:1;fill-rule:evenodd;stroke:none;stroke-width:0.0668132;stroke-linecap:round;stroke-linejoin:round;stroke-miterlimit:0.7;stroke-dasharray:none;stroke-opacity:1"
         d="m 180.22051,455.85493 c -0.0117,-0.43598 4.52767,-14.7088 4.67814,-14.70926 0.28664,-8.7e-4 10.70053,4.66943 10.70278,4.79986 0.001,0.0631 -1.17137,0.86852 -2.60547,1.78984 -1.4341,0.92131 -4.89451,3.15316 -7.68979,4.95965 -2.79528,1.80649 -5.08383,3.22845 -5.08566,3.15991 z"
         id="path337"
         transform="scale(0.26458333)" />
      <path
         style="opacity:0.979167;fill:#ffffff;fill-opacity:1;fill-rule:evenodd;stroke:none;stroke-width:0.0668132;stroke-linecap:round;stroke-linejoin:round;stroke-miterlimit:0.7;stroke-dasharray:none;stroke-opacity:1"
         d="m 191.00722,443.15021 c -2.8682,-1.28789 -5.35454,-2.40486 -5.52518,-2.48215 -0.22037,-0.0998 1.45969,-0.77397 5.79828,-2.32667 3.3597,-1.20237 6.15198,-2.1427 6.20506,-2.08962 0.10528,0.10528 -0.94927,8.29235 -1.1437,8.87922 -0.11172,0.33719 -0.46111,0.20746 -5.33446,-1.98078 z"
         id="path338"
         transform="scale(0.26458333)" />
      <path
         style="opacity:0.979167;fill:#ffffff;fill-opacity:1;fill-rule:evenodd;stroke:none;stroke-width:0.0668132;stroke-linecap:round;stroke-linejoin:round;stroke-miterlimit:0.7;stroke-dasharray:none;stroke-opacity:1"
         d="m 197.01763,444.76839 c 0,-0.22342 1.06864,-8.12783 1.14856,-8.49551 0.0761,-0.35021 0.32132,-0.38232 5.84483,-0.76533 3.17096,-0.21988 5.78745,-0.37358 5.81441,-0.34156 0.052,0.0618 -12.38824,9.56283 -12.6525,9.6631 -0.0854,0.0324 -0.1553,0.005 -0.1553,-0.0607 z"
         id="path339"
         transform="scale(0.26458333)" />
      <path
         style="opacity:0.979167;fill:#ffffff;fill-opacity:1;fill-rule:evenodd;stroke:none;stroke-width:0.0668132;stroke-linecap:round;stroke-linejoin:round;stroke-miterlimit:0.7;stroke-dasharray:none;stroke-opacity:1"
         d="m 197.56269,445.32809 c 0.0405,-0.0334 2.61924,-1.99624 5.73051,-4.36178 3.11127,-2.36553 6.10178,-4.64015 6.64557,-5.0547 l 0.98872,-0.75373 2.58082,4.53643 c 1.41945,2.49505 2.55655,4.56071 2.52688,4.59038 -0.0649,0.0649 -16.86546,1.10379 -17.85378,1.10403 -0.38081,9e-5 -0.65923,-0.0272 -0.61872,-0.0606 z"
         id="path340"
         transform="scale(0.26458333)" />
      <path
         style="opacity:0.979167;fill:#ffffff;fill-opacity:1;fill-rule:evenodd;stroke:none;stroke-width:0.0668132;stroke-linecap:round;stroke-linejoin:round;stroke-miterlimit:0.7;stroke-dasharray:none;stroke-opacity:1"
         d="m 215.96559,442.78432 c -2.74223,-4.73161 -4.28846,-7.51768 -4.21369,-7.59244 0.0899,-0.0899 10.88856,0.75913 10.99384,0.8644 0.0322,0.0322 -1.32416,1.82834 -3.01417,3.99138 l -3.07275,3.9328 z"
         id="path341"
         transform="scale(0.26458333)" />
      <path
         style="opacity:0.979167;fill:#ffffff;fill-opacity:1;fill-rule:evenodd;stroke:none;stroke-width:0.0668132;stroke-linecap:round;stroke-linejoin:round;stroke-miterlimit:0.7;stroke-dasharray:none;stroke-opacity:1"
         d="m 221.85475,445.87603 c -2.5279,-0.78303 -4.62434,-1.44662 -4.65874,-1.47464 -0.0344,-0.028 1.31788,-1.81896 3.00507,-3.97987 l 3.06761,-3.92891 1.71083,5.19944 c 1.72894,5.2545 1.84314,5.65491 1.60401,5.62453 -0.0729,-0.009 -2.20087,-0.65751 -4.72878,-1.44055 z"
         id="path342"
         transform="scale(0.26458333)" />
      <path
         style="opacity:0.979167;fill:#ffffff;fill-opacity:1;fill-rule:evenodd;stroke:none;stroke-width:0.0668132;stroke-linecap:round;stroke-linejoin:round;stroke-miterlimit:0.7;stroke-dasharray:none;stroke-opacity:1"
         d="m 225.67136,441.99262 c -1.0004,-3.00645 -1.79109,-5.48784 -1.7571,-5.51421 0.034,-0.0264 3.1839,1.31897 6.99979,2.98964 l 6.93798,3.03759 -1.98823,0.9431 c -1.09353,0.51871 -3.42493,1.63319 -5.18089,2.47663 l -3.19265,1.53352 z"
         id="path343"
         transform="scale(0.26458333)" />
      <path
         style="opacity:0.979167;fill:#ffffff;fill-opacity:1;fill-rule:evenodd;stroke:none;stroke-width:0.0668132;stroke-linecap:round;stroke-linejoin:round;stroke-miterlimit:0.7;stroke-dasharray:none;stroke-opacity:1"
         d="m 233.57335,451.60912 c -3.08303,-2.00947 -5.54906,-3.70287 -5.48007,-3.76311 0.30164,-0.26335 9.96758,-4.78311 10.05092,-4.69977 0.12689,0.12689 1.24447,12.14535 1.12789,12.12931 -0.0513,-0.007 -2.6157,-1.65695 -5.69874,-3.66643 z"
         id="path344"
         transform="scale(0.26458333)" />
      <path
         style="opacity:0.979167;fill:#ffffff;fill-opacity:1;fill-rule:evenodd;stroke:none;stroke-width:0.0668132;stroke-linecap:round;stroke-linejoin:round;stroke-miterlimit:0.7;stroke-dasharray:none;stroke-opacity:1"
         d="m 247.22221,458.55283 c -3.84048,-1.49752 -7.04359,-2.74562 -7.11804,-2.77356 -0.15167,-0.0569 -1.23222,-11.11614 -1.15281,-11.79881 0.0425,-0.36532 1.30061,0.96953 7.74755,8.22012 4.23325,4.76094 7.75801,8.7557 7.8328,8.87723 0.0828,0.13446 0.0454,0.21643 -0.0954,0.20938 -0.12727,-0.006 -3.37361,-1.23684 -7.21408,-2.73436 z"
         id="path345"
         transform="scale(0.26458333)" />
      <path
         style="opacity:0.979167;fill:#ffffff;fill-opacity:1;fill-rule:evenodd;stroke:none;stroke-width:0.0668132;stroke-linecap:round;stroke-linejoin:round;stroke-miterlimit:0.7;stroke-dasharray:none;stroke-opacity:1"
         d="m 242.29448,459.43408 c -0.91155,-1.41311 -1.61844,-2.60821 -1.57086,-2.65578 0.0769,-0.0769 13.37266,4.98111 13.55492,5.15665 0.0405,0.039 -2.26642,0.0704 -5.12652,0.0697 l -5.20018,-0.001 z"
         id="path346"
         transform="scale(0.26458333)" />
      <path
         style="opacity:0.979167;fill:#ffffff;fill-opacity:1;fill-rule:evenodd;stroke:none;stroke-width:0.0668132;stroke-linecap:round;stroke-linejoin:round;stroke-miterlimit:0.7;stroke-dasharray:none;stroke-opacity:1"
         d="m 198.27903,496.34476 c 0.0132,-1.14241 0.0728,-3.00316 0.13258,-4.13499 l 0.10862,-2.05788 11.04854,3.9597 c 6.0767,2.17783 11.20764,4.03319 11.4021,4.12303 0.22082,0.10202 -3.97687,0.16783 -11.18113,0.17531 l -11.53468,0.012 z"
         id="path348"
         transform="scale(0.26458333)" />
      <path
         style="opacity:0.979167;fill:#ffffff;fill-opacity:1;fill-rule:evenodd;stroke:none;stroke-width:0.0668132;stroke-linecap:round;stroke-linejoin:round;stroke-miterlimit:0.7;stroke-dasharray:none;stroke-opacity:1"
         d="m 211.21808,494.11632 c -6.23908,-2.24956 -11.33025,-4.09921 -11.31371,-4.11034 0.11131,-0.0749 42.18199,0.39248 42.25888,0.46947 0.132,0.13218 -18.88179,7.77459 -19.28226,7.75032 -0.17552,-0.0106 -5.42383,-1.85989 -11.66291,-4.10945 z"
         id="path350"
         transform="scale(0.26458333)" />
      <path
         style="opacity:0.979167;fill:#ffffff;fill-opacity:1;fill-rule:evenodd;stroke:none;stroke-width:0.0668132;stroke-linecap:round;stroke-linejoin:round;stroke-miterlimit:0.7;stroke-dasharray:none;stroke-opacity:1"
         d="m 228.9447,498.42655 -4.40053,-0.0931 9.55862,-3.84489 c 5.25724,-2.11469 9.63056,-3.84489 9.71849,-3.84489 0.0879,0 1.37093,1.78986 2.8511,3.97747 l 2.69121,3.97748 -8.00917,-0.0395 c -4.40505,-0.0217 -9.98942,-0.0814 -12.40972,-0.13259 z"
         id="path351"
         transform="scale(0.26458333)" />
      <path
         style="opacity:0.979167;fill:#ffffff;fill-opacity:1;fill-rule:evenodd;stroke:none;stroke-width:0.0668132;stroke-linecap:round;stroke-linejoin:round;stroke-miterlimit:0.7;stroke-dasharray:none;stroke-opacity:1"
         d="m 247.32606,494.5142 c -1.43155,-2.14792 -2.55372,-3.95441 -2.49371,-4.01442 0.06,-0.06 3.62527,-0.13959 7.9228,-0.17686 4.93852,-0.0428 7.74865,-0.006 7.63692,0.10018 -0.0972,0.0924 -2.40416,1.86294 -5.12652,3.93461 -2.72236,2.07167 -5.03681,3.83307 -5.14321,3.91424 -0.12682,0.0967 -1.08999,-1.19761 -2.79628,-3.75775 z"
         id="path352"
         transform="scale(0.26458333)" />
      <path
         style="opacity:0.979167;fill:#ffffff;fill-opacity:1;fill-rule:evenodd;stroke:none;stroke-width:0.0668132;stroke-linecap:round;stroke-linejoin:round;stroke-miterlimit:0.7;stroke-dasharray:none;stroke-opacity:1"
         d="m 254.7703,501.74217 -4.37145,-2.90554 5.25665,-4.02343 c 2.89117,-2.21288 5.28154,-3.9488 5.31194,-3.85759 0.0468,0.14047 -1.65984,13.09996 -1.78314,13.5402 -0.0234,0.0836 -2.0097,-1.15559 -4.414,-2.75364 z"
         id="path353"
         transform="scale(0.26458333)" />
      <path
         style="opacity:0.979167;fill:#ffffff;fill-opacity:1;fill-rule:evenodd;stroke:none;stroke-width:0.0668132;stroke-linecap:round;stroke-linejoin:round;stroke-miterlimit:0.7;stroke-dasharray:none;stroke-opacity:1"
         d="m 244.76943,512.61337 c 0.0365,-0.0944 1.25294,-3.11853 2.70328,-6.72029 l 2.63699,-6.54867 4.29668,2.8533 c 2.36317,1.56932 4.29884,2.89939 4.30149,2.95572 0.004,0.0824 -13.25373,7.32931 -13.84002,7.56528 -0.0906,0.0365 -0.13488,-0.0109 -0.0984,-0.10534 z"
         id="path354"
         transform="scale(0.26458333)" />
      <path
         style="opacity:0.979167;fill:#ffffff;fill-opacity:1;fill-rule:evenodd;stroke:none;stroke-width:0.0668132;stroke-linecap:round;stroke-linejoin:round;stroke-miterlimit:0.7;stroke-dasharray:none;stroke-opacity:1"
         d="m 248.38452,516.16374 c -1.81178,-1.52033 -3.24682,-2.81301 -3.18898,-2.87262 0.15117,-0.15578 13.24341,-7.23643 13.29517,-7.1904 0.0784,0.0697 -6.58142,12.82059 -6.69798,12.82397 -0.0627,0.002 -1.59642,-1.24061 -3.40821,-2.76095 z"
         id="path355"
         transform="scale(0.26458333)" />
      <path
         style="opacity:0.979167;fill:#ffffff;fill-opacity:1;fill-rule:evenodd;stroke:none;stroke-width:0.0668132;stroke-linecap:round;stroke-linejoin:round;stroke-miterlimit:0.7;stroke-dasharray:none;stroke-opacity:1"
         d="m 241.37994,528.89204 c -0.0188,-0.33312 3.27753,-14.9138 3.37165,-14.9138 0.0875,0 5.89626,4.80594 6.49225,5.3714 0.17382,0.16492 -0.29744,0.69457 -2.20971,2.48351 -1.33685,1.25064 -3.604,3.38493 -5.0381,4.74287 -1.4341,1.35793 -2.61134,2.40014 -2.61609,2.31602 z"
         id="path356"
         transform="scale(0.26458333)" />
      <path
         style="opacity:0.979167;fill:#ffffff;fill-opacity:1;fill-rule:evenodd;stroke:none;stroke-width:0.0668132;stroke-linecap:round;stroke-linejoin:round;stroke-miterlimit:0.7;stroke-dasharray:none;stroke-opacity:1"
         d="m 234.4275,528.6454 c -3.00217,-0.57289 -5.48569,-1.06882 -5.51894,-1.10207 -0.0332,-0.0333 3.32622,-3.06426 7.46549,-6.73558 4.13927,-3.67132 7.55162,-6.64944 7.583,-6.61806 0.0314,0.0314 -0.7183,3.51671 -1.66595,7.74517 -1.52336,6.79731 -1.76252,7.69183 -2.06406,7.72014 -0.18759,0.0176 -2.79738,-0.43671 -5.79954,-1.0096 z"
         id="path357"
         transform="scale(0.26458333)" />
      <path
         style="opacity:0.979167;fill:#ffffff;fill-opacity:1;fill-rule:evenodd;stroke:none;stroke-width:0.0668132;stroke-linecap:round;stroke-linejoin:round;stroke-miterlimit:0.7;stroke-dasharray:none;stroke-opacity:1"
         d="m 222.65025,539.20202 c 0,-0.0894 5.64653,-10.93856 5.75414,-11.05589 0.0956,-0.10421 11.03964,1.9825 11.03964,2.10493 0,0.0625 -3.36096,1.88917 -7.46881,4.05923 -4.10785,2.17005 -7.88645,4.17848 -8.3969,4.46316 -0.51044,0.28468 -0.92807,0.47754 -0.92807,0.42857 z"
         id="path358"
         transform="scale(0.26458333)" />
      <path
         style="opacity:0.979167;fill:#ffffff;fill-opacity:1;fill-rule:evenodd;stroke:none;stroke-width:0.0668132;stroke-linecap:round;stroke-linejoin:round;stroke-miterlimit:0.7;stroke-dasharray:none;stroke-opacity:1"
         d="m 212.7088,535.77054 c -4.83582,-2.10347 -8.75888,-3.858 -8.71793,-3.89896 0.0823,-0.0823 23.66921,-3.92682 23.72846,-3.86757 0.0762,0.0762 -5.93988,11.51377 -6.07606,11.55157 -0.0781,0.0217 -4.09865,-1.68158 -8.93447,-3.78504 z"
         id="path359"
         transform="scale(0.26458333)" />
      <path
         style="opacity:0.979167;fill:#ffffff;fill-opacity:1;fill-rule:evenodd;stroke:none;stroke-width:0.0668132;stroke-linecap:round;stroke-linejoin:round;stroke-miterlimit:0.7;stroke-dasharray:none;stroke-opacity:1"
         d="m 198.37326,538.68278 c -3.53306,-4.9818 -8.24447,-11.86422 -8.17162,-11.93707 0.0689,-0.0689 17.56993,7.46671 28.82468,12.41134 l 1.41422,0.62131 -10.64186,0.005 -10.64187,0.005 z"
         id="path360"
         transform="scale(0.26458333)" />
      <path
         style="opacity:0.979167;fill:#ffffff;fill-opacity:1;fill-rule:evenodd;stroke:none;stroke-width:0.0668132;stroke-linecap:round;stroke-linejoin:round;stroke-miterlimit:0.7;stroke-dasharray:none;stroke-opacity:1"
         d="m 188.00201,535.01074 c -7.37343,-3.28586 -9.45755,-4.28398 -9.45755,-4.52939 0,-0.24711 1.06408,-0.7414 4.94975,-2.29927 2.72236,-1.09147 5.06907,-1.98603 5.21491,-1.98791 0.21259,-0.003 8.93813,12.28243 9.16293,12.901 0.0324,0.0892 -0.0471,0.15495 -0.17678,0.14616 -0.12964,-0.009 -4.4916,-1.91255 -9.69326,-4.23059 z"
         id="path361"
         transform="scale(0.26458333)" />
      <path
         style="opacity:0.979167;fill:#ffffff;fill-opacity:1;fill-rule:evenodd;stroke:none;stroke-width:0.0668132;stroke-linecap:round;stroke-linejoin:round;stroke-miterlimit:0.7;stroke-dasharray:none;stroke-opacity:1"
         d="m 178.69715,528.94402 c 0.0537,-0.30716 0.34348,-2.42789 0.64395,-4.71273 0.30047,-2.28484 0.60212,-4.29217 0.67033,-4.46072 0.10287,-0.25422 0.80224,0.20766 4.1015,2.70876 2.18761,1.65837 3.99669,3.06908 4.02017,3.13489 0.0235,0.0658 -2.11197,0.96761 -4.74544,2.00398 l -4.78814,1.8843 z"
         id="path362"
         transform="scale(0.26458333)" />
      <path
         style="opacity:0.979167;fill:#ffffff;fill-opacity:1;fill-rule:evenodd;stroke:none;stroke-width:0.0668132;stroke-linecap:round;stroke-linejoin:round;stroke-miterlimit:0.7;stroke-dasharray:none;stroke-opacity:1"
         d="m 172.1805,524.57131 -5.65685,-5.67776 6.45235,0.12252 c 3.54879,0.0674 6.46345,0.13479 6.47701,0.1498 0.0553,0.0612 -1.35122,10.1406 -1.47824,10.59338 -0.13314,0.47457 -0.31356,0.31303 -5.79427,-5.18794 z"
         id="path363"
         transform="scale(0.26458333)" />
      <path
         style="opacity:0.979167;fill:#ffffff;fill-opacity:1;fill-rule:evenodd;stroke:none;stroke-width:0.0668132;stroke-linecap:round;stroke-linejoin:round;stroke-miterlimit:0.7;stroke-dasharray:none;stroke-opacity:1"
         d="m 170.26183,518.44197 -4.03999,-0.051 0.10304,-0.41053 c 0.12281,-0.48934 3.79032,-12.8211 3.91792,-13.17377 0.064,-0.1769 6.46957,9.67518 8.80779,13.54683 0.10466,0.1733 -0.39323,0.21219 -2.30766,0.18027 -1.34261,-0.0224 -4.2591,-0.0637 -6.4811,-0.0918 z"
         id="path364"
         transform="scale(0.26458333)" />
      <path
         style="opacity:0.979167;fill:#ffffff;fill-opacity:1;fill-rule:evenodd;stroke:none;stroke-width:0.0668132;stroke-linecap:round;stroke-linejoin:round;stroke-miterlimit:0.7;stroke-dasharray:none;stroke-opacity:1"
         d="m 162.38831,508.74891 c -1.8697,-4.92248 -3.36815,-8.98125 -3.3299,-9.0195 0.13133,-0.13133 10.73561,4.24726 10.73094,4.43089 -0.003,0.10099 -0.90397,3.18848 -2.00312,6.86109 l -1.99847,6.67748 z"
         id="path365"
         transform="scale(0.26458333)" />
      <path
         style="opacity:0.979167;fill:#ffffff;fill-opacity:1;fill-rule:evenodd;stroke:none;stroke-width:0.0668132;stroke-linecap:round;stroke-linejoin:round;stroke-miterlimit:0.7;stroke-dasharray:none;stroke-opacity:1"
         d="m 164.32971,501.13572 c -2.95675,-1.19978 -5.40662,-2.21212 -5.44415,-2.24965 -0.0375,-0.0375 1.90302,-3.55227 4.31233,-7.81054 3.9966,-7.06367 4.3921,-7.69694 4.51217,-7.22484 0.18905,0.74331 2.11955,18.75048 2.05201,19.14052 -0.0494,0.28528 -0.72675,0.0539 -5.43236,-1.85549 z"
         id="path367"
         transform="scale(0.26458333)" />
      <path
         style="opacity:0.979167;fill:#ffffff;fill-opacity:1;fill-rule:evenodd;stroke:none;stroke-width:0.0668132;stroke-linecap:round;stroke-linejoin:round;stroke-miterlimit:0.7;stroke-dasharray:none;stroke-opacity:1"
         d="m 158.58362,497.15832 c -0.17081,-1.05141 -1.18739,-16.09605 -1.09395,-16.1895 0.0497,-0.0497 2.30615,0.25254 5.01436,0.67161 l 4.92402,0.76193 -4.30583,7.60602 c -2.3682,4.18331 -4.33654,7.63673 -4.37408,7.67427 -0.0375,0.0375 -0.11158,-0.1984 -0.16452,-0.52433 z"
         id="path370"
         transform="scale(0.26458333)" />
    </g>
  </g>
</svg>
